/* XPM */
static char *cac5e60640ab435aafce2b5b8d3bdc859Ch0SfGiJvYKqlMu[] = {
/* columns rows colors chars-per-pixel */
"40 64 205 2 ",
"   c None",
".  c #252625",
"X  c #282725",
"o  c #272827",
"O  c #292827",
"+  c #262728",
"@  c #272829",
"#  c #29292A",
"$  c #332D2C",
"%  c #3A2F27",
"&  c #2D2E34",
"*  c #2C2F38",
"=  c #312E33",
"-  c #2E313C",
";  c #343335",
":  c #38373B",
">  c #3A322C",
",  c #493629",
"<  c #563C29",
"1  c #473933",
"2  c #583838",
"3  c #693D3D",
"4  c #574437",
"5  c #66432A",
"6  c #6A4429",
"7  c #774928",
"8  c #78563D",
"9  c #654D3D",
"0  c #2F3442",
"q  c #303544",
"w  c #32394D",
"e  c #383748",
"r  c #353C53",
"t  c #353E59",
"y  c #423C50",
"u  c #403B4C",
"i  c #36405D",
"p  c #394569",
"a  c #394567",
"s  c #3B4A72",
"d  c #3E4E7C",
"f  c #454545",
"g  c #4A4A4A",
"h  c #484847",
"j  c #4A425B",
"k  c #484057",
"l  c #595959",
"z  c #535353",
"x  c #574A4E",
"c  c #784242",
"v  c #675141",
"b  c #765842",
"n  c #7C5B44",
"m  c #635353",
"M  c #4F4662",
"N  c #524867",
"B  c #4C4C74",
"V  c #594F76",
"C  c #5E527A",
"Z  c #545E78",
"A  c #5C5B69",
"S  c #70536A",
"D  c #696969",
"F  c #626262",
"G  c #797878",
"H  c #8D5329",
"J  c #985728",
"K  c #834F29",
"L  c #AF5E26",
"P  c #B56329",
"I  c #B96529",
"U  c #B9652A",
"Y  c #B16936",
"T  c #C67237",
"R  c #825E46",
"E  c #924B4B",
"W  c #B35555",
"Q  c #9A6C4D",
"!  c #96694A",
"~  c #896145",
"^  c #B67445",
"/  c #AD7854",
"(  c #8F7676",
")  c #C47B49",
"_  c #D17E44",
"`  c #DB6262",
"'  c #E36565",
"]  c #BD8258",
"[  c #C7885B",
"{  c #DF8C51",
"}  c #D68B56",
"|  c #E49259",
" . c #CB9269",
".. c #DA9665",
"X. c #C6926E",
"o. c #EC9C64",
"O. c #F19D62",
"+. c #FAA66B",
"@. c #FDA96E",
"#. c #F7A469",
"$. c #FAAC75",
"%. c #FFAF78",
"&. c #FFB078",
"*. c #3F5284",
"=. c #41548A",
"-. c #415385",
";. c #465D9D",
":. c #435892",
">. c #5C5787",
",. c #695A8A",
"<. c #6C5F95",
"1. c #5C609D",
"2. c #76659B",
"3. c #6E638A",
"4. c #465FA1",
"5. c #4761A6",
"6. c #4A64AB",
"7. c #4861A7",
"8. c #4A67B3",
"9. c #4C68B5",
"0. c #5E6BB7",
"q. c #7B68A7",
"w. c #626DB9",
"e. c #756CB3",
"r. c #6966A8",
"t. c #4E6EC3",
"y. c #506FC5",
"u. c #5273CE",
"i. c #5371C8",
"p. c #5375D2",
"a. c #5A77D4",
"s. c #5A78D7",
"d. c #6B72C6",
"f. c #7275C9",
"g. c #6C7CDC",
"h. c #7A7BD4",
"j. c #826DB1",
"k. c #8873B9",
"l. c #806BAD",
"z. c #8A76C7",
"x. c #937ACD",
"c. c #957DD3",
"v. c #7982E4",
"b. c #88888A",
"n. c #9A9A9A",
"m. c #979796",
"M. c #8C8C98",
"N. c #9294A6",
"B. c #AAAAAB",
"V. c #BBBBBA",
"C. c #ABA7B6",
"Z. c #FDBF94",
"A. c #E1AA84",
"S. c #E0BFA7",
"D. c #D5A98A",
"F. c #E8C3A9",
"G. c #FACBA9",
"H. c #FAD6BC",
"J. c #E5C7B3",
"K. c #9D81DB",
"L. c #8298DD",
"P. c #A284DF",
"I. c #AA95DA",
"U. c #B7A6DA",
"Y. c #8183E6",
"T. c #8E88ED",
"R. c #9D8CF4",
"E. c #958BF1",
"W. c #918DEE",
"Q. c #A588E6",
"!. c #A58EF6",
"~. c #AD8DF4",
"^. c #B28FFE",
"/. c #AA91FB",
"(. c #A790F9",
"). c #B493FE",
"_. c #B996FF",
"`. c #BB9AFF",
"'. c #BFA1FF",
"]. c #BDA7EF",
"[. c #C2A6FF",
"{. c #CEB7FF",
"}. c #D0BCFD",
"|. c #C7B6ED",
" X c #C8C8C8",
".X c #DCDCDB",
"XX c #D3D3D3",
"oX c #EAD4C4",
"OX c #F2D5C1",
"+X c #FDE5D4",
"@X c #D4C4FD",
"#X c #DDCEFF",
"$X c #CDCCF0",
"%X c #E3D6FF",
"&X c #E7DBFF",
"*X c #E3E3E3",
"=X c #ECECEC",
"-X c #F4E9E1",
";X c #FEF1E7",
":X c #FFF3EB",
">X c #ECE3FF",
",X c #F7F4FD",
"<X c #FEFEFD",
"1X c #F8F5F7",
"2X c #F1ECFF",
/* pixels */
"                                    o o o o                                     ",
"                                    w w w w                                     ",
"                                @ # 7.u.u.7.# @                                 ",
"                                @ # d :.:.d # @                                 ",
"                          o o o @ @ X X X X @ @ o o o                           ",
"                        w d d d w # G n.n.G # w d d d w                         ",
"                      o t p.p.p.a # XX<X<XXX# a p.p.p.t o                       ",
"                  o 0 :.7.p.;.i <.k.].@X<X=XV.M.t r.E.0.:.0 o                   ",
"                  o q y.p.p.-.@ q.).).`.,X<X<XB.@ q.`.v.t.q o                   ",
"                  o q t.g.!.h.6.B k K.'.,X.Xl 3.c.|.2XL.t.q o                   ",
"                  o q t.g./.Y.p.a @ x.'.,XXX@ V /.@X,XL.t.q o                   ",
"                  X 0 y.p.a.a.p.a @ x.'.,XXX@ a s.W.'.v.t.0 X                   ",
"                  w i 4.7.5.7.7.B M I.{.<X.XF Z 5.e.x.0.4.i w                   ",
"              @ & 8.8.* # # # # l._.>X<X<X<X<XB.# # # # * 8.8.& @               ",
"              @ & d.d.& @ @ @ o r.E.@X%X%X#X$XM.o @ @ @ & d.d.& @               ",
"              @ ; P.P.; @ @ @ @ :.p.R._._.R.p.:.@ @ @ @ ; P.P.; @               ",
"              @ & f.f.= @ @ @ @ t d f.Y.Y.f.d t o @ @ @ & f.f.; @               ",
"              @ & 8.8.& @ @ @ @ o @ 5.u.u.5.@ o @ @ @ @ & 8.8.& @               ",
"              @ & 9.9.& @ X D  XF X r i i r X F  XD X @ & 9.9.& @               ",
"              @ & 6.6.- # X b.<Xb.; @ X X @ ; b.<Xb.X # - 6.6.& @               ",
"            X o @ 0 t 6.=.X b.<X=XXXz X X z XX=X<Xb.X =.6.t 0 @ X X             ",
"          f g g f # 0 y.6.e b.*X*X.Xm % % m .X*X*Xb.e 6.y.0 # f g g f           ",
"        . m.=X=X*Xf 0 t.g.~.2.; : : H L L H : : ; 2.~.g.t.0 g *X=X1Xn..         ",
"      y j C.<X<X1XG A ;.w.R.e.j : O Y T T Y o : j e.R.w.;.- f V. X XM.j y       ",
"    X C ).#X<X<X<X<X.X; i p.Y._.C O [ +.+.[ O C _.Y.p.i @ + + @ # @ ,._.C X     ",
"    o j q.U.%X%X%X<X.X; 0 =.w.T.B O ^ { { ^ O B T.w.=.x 5 8 n n 8 5 S q.j o     ",
"    @ @ . 2._._.`.,X.X; o . s p.a O J U U J O a p.s X H T O.@.@.| I 7 + @ @     ",
"@ , 7 < @ j ,.,.<.|.U.; 0 -.d s q @ < 5 5 < @ q s x 7 6 5 n R R 8 5 6 7 , @ @ @ ",
"@ , P K @ o X X & K.K.; i p.-.X @ @ @ @ @ @ @ @ X 7 U < @ @ @ @ @ @ 6 U < @ @ @ ",
"+ 4 | ) H H H , # j V k.c.R.f.;.t @ *.4.4.*.# @ @ > < Q ] ] ] ] ] ] ~ , % @ @ @ ",
"+ 4 o.{ U U P < @ . e !._._.T.s.p @ 6.s.s.6.# @ @ # > [ %.$.$.$.%.&./ $ # @ @ @ ",
"@ , U _ o._ P < X o q a.v._./.(.V @ z././.z.# @ + ~ ..OX:X;X;X;X;X:XF...9 + @ @ ",
"@ , J Y o.) J v g # - 7.d.!.!.(.>.q k.P.P.k.w - + Q @.H.-X<X<X<X1X-XG.+.b + @ @ ",
"    $ 5 U 6 O V.*Xh X & a a.a.s.i.t.t = = t y.=.X Q +._ ^ -X<X<XoXY } +.b +     ",
"    + < H n D XX1X3.j @ w ;.;.;.;.;.B M M B 4.s X Q +... .J.oXoXS. ...+.b +     ",
"        + n.<X<X<X[.K.= X o @ @ @ # x._._.x.# o + Q @.+X1X) P P  .<XH.#.b +     ",
"      2 c ( B.$X#Xk.<.s s s r o M ,.Q._._.Q.,.M X Q @.+X1X) P P  .<XH.#.b +     ",
"    + 3 ' c + z.~.e 0 y.p.p.-.X j._._._._._.`.j.X Q @.+X1X) L L  .<XH.#.b +     ",
"@ 1 E W ' W E S C ; & a p s w o 1.v.(._._.(.v.1.o 4 R D.G.F.S.S.F.G.X.n 4       ",
"@ 2 ` ` ` ` ` 2 + @ @ o o X o @ =.u.R._.).R.u.=.@ @ + / $.;X<X<X+X#.! +         ",
"@ $ 2 2 2 2 2 $ @ @ @ @ @ @ @ @ q t w.g.g.w.t m W 3 @ 1 v A.Z.Z.X.9 4           ",
"@ @ @ # - & @ @ @ @ @ @ @ @ @ @ o @ ;.t.t.;.@ 3 ` c @ + $ [ o.o./ @             ",
"    . N Q.C .         @ @ @ @ @ @ @ - 0 q - @ $ 1 $ @ @ @ 1 1 1 1               ",
"    u <._.q.u         @ @ @ @ @ @ @ @ o o @ @ @ @ @ @ @ @ @ + + +               ",
"X j ~.).).).~.N X             @ @ @ @ @ @ @ @ @ @                               ",
"X j ).'.{.[.).N X             @ @ @ @ @ @ @ @ @ @                               ",
"X j ~.}.<X@X^.N X                                                               ",
"X z }.&X<X>X@XA X                                                               ",
"X l 1X<X<X<X<XD X                                                               ",
"X l 1X>X}.>X<XD X                                                               ",
"X l 1X%X^.#X<XD X                                                               ",
"X l 1X%X).#X<XD X                                                               ",
"X l 1X%X).#X<XD X                                                               ",
"X l 1X%X).#X<XD X                                                               ",
"X l 1X%X).#X<XD X                                                               ",
"X l 1X%X).#X<XD X                                                               ",
"X l 1X%X).#X<XD X                                                               ",
"X l 1X%X).#X<XD X                                                               ",
"X l 1X%X).#X<XD X                                                               ",
"X l 1X%X).#X<XD X                                                               ",
"  g G N.&XC.G z                                                                 ",
"    . G <Xb..                                                                   ",
"      g l g                                                                     ",
"        X                                                                       "
};
