/* XPM */
static char *fbe5fe9e61054d12df5893a9ec09f8bfhaGPx57laUAaJmKq[] = {
/* columns rows colors chars-per-pixel */
"64 64 11 1 ",
"  c #1BB749",
". c #19B646",
"X c #0BB237",
"o c #09B134",
"O c #0BB236",
"+ c #19B647",
"@ c #0DB239",
"# c #17B644",
"$ c #0DB238",
"% c #17B645",
"& c white",
/* pixels */
"   .XooX.  .XooooooX.                                           ",
"   .XooX.  .XooooooX.                                           ",
"   .XooX.  .OooooooX.                                           ",
"   .XooX.  +@OXOoooX.       +..+    +..+            +..+        ",
"   .XooX.   +.+#OooX.      +@OO@+  +@OO@+          +@OO@+       ",
"   .XooX.      +XooX.      .OooO.  .OooO.          .OooO.       ",
"   .OooO.      .OooO.      .OooO.  .XooX+          .XooX.       ",
"   +@OO@+      +@OO@+      +@OO@+  .XooO#+.+       .XooX.       ",
"    +..+        +..+        +..+   .XoooOXO@+      .XooX.       ",
"                                   .XooooooO.      .XooX.       ",
"                                   .OooooooO.      .XooX.       ",
"                +..+               +@OXXXXO@+      .XooX.       ",
"               +@OO@+               +......+       .XooX.       ",
"               .OooO.                              .XooX.       ",
"               .XooX+                              .OooO.       ",
"               .XooO#+.....+            +..+       +@OO@+       ",
"               .XoooOXXXXXO@+          +@OO@+       +..+        ",
"               .XooooooooooO.          .OooO.                   ",
"               .OooooooooooX.          .XooX.                   ",
"    +..+       +@OXXXXXOoooX.          .XooX.   +..+            ",
"   +@OO@+       +.....+#OooX.          .XooX.  +@OO@+           ",
"   .OooO.              +XooX.          .XooX.  .OooO.           ",
"   .XooX+              .OooO.          .XooX.  .OooO+           ",
"   .XooO#+.+           +@OO@+          .XooX.  +@OO$%+.+        ",
"   .XoooOXO@+           +..+           .XooX.   +.+%$OO@+       ",
"   .XooooooO.                          .XooX.      +OooO.       ",
"   .OooooooX.                          +OooO.      .OooO.       ",
"   +@OXOoooX.       +..........+    +.+%$OO@+      +@OO@+       ",
"    +.+#OooX.      +@OXXXXXXXXO@+  +@OO$%+.+        +..+        ",
"       +XooX.      .OooooooooooO.  .OooO+                       ",
"       .XooX.      +XooooooooooO.  .OooO.                       ",
"       .XooX.   +.+#OoooOXXXXXO@+  +@OO@+       +......+        ",
"       .XooX.  +@OXOoooO#+.....+    +..+       +@OXXXXO@+       ",
"       .XooX.  .OooooooX+                      .OooooooO.       ",
"       .OooO.  .OooooooO.                      .XooooooO.       ",
"       +@OO@+  +@OXXXXO@+       +..+           .XoooOXO@+       ",
"        +..+    +......+       +@OO@+          .XooO#+.+        ",
"                               .OooO.          .XooX+           ",
"                               .OooO.          .XooX.           ",
"            +..+               +@OO@+          .XooX.           ",
"           +@OO@+               +..+           .XooX.           ",
"           .OooO.                              .XooX.           ",
"           +XooX.                              .OooO.           ",
"        +.+#OooX.               +..........+   +@OO@+           ",
"       +@OXOoooX.              +@OXXXXXXXXO@+   +..+            ",
"       .OooooooX.              .OooooooooooO.                   ",
"       .OooooooO.              .OooooooooooO.                   ",
"       +@OXXXXO@+              +@OXXXXXXXXO@+           +..+    ",
"        +......+                +..........+           +@OO@+   ",
"                                                       .OooO.   ",
"                                                       +XooX.   ",
"    +..+        +......+        +..+                +.+#OooX.   ",
"   +@OO@+      +@OXXXXO@+      +@OO@+              +@OXOoooX.   ",
"   .OooO.      .OooooooO.      .OooO.              .OooooooX.   ",
"   .XooX.      +XooooooO.      .XooX+              .OooooooO.   ",
"   .XooX.   +.+#OoooOXO@+      .XooO#+.....+       +@OXXXXO@+   ",
"   .XooX.  +@OXOoooO#+.+       .XoooOXXXXXO@+       +......+    ",
"   .XooX.  .OooooooX+          .XooooooooooO.                   ",
"   .OooO.  .OooooooO.          .OooooooooooO.                   ",
"   +@OO@+  +@OXXXXO@+          +@OXXXXXXXXO@+                   ",
"    +..+    +......+            +..........+                    ",
"                                                                ",
"                                                                ",
"                                                                "
};
