/* XPM */
static char *_2649bde83c8406e910109502c023a5aLuXzhNFIHItbTXwg[] = {
/* columns rows colors chars-per-pixel */
"64 64 184 2 ",
"   c None",
".  c #671604",
"X  c #681604",
"o  c #6A1904",
"O  c #6B1C0B",
"+  c #711D04",
"@  c #742206",
"#  c #7C2604",
"$  c #7F2805",
"%  c #732209",
"&  c #7C250B",
"*  c #7A2809",
"=  c #6C2113",
"-  c #702517",
";  c #7B2A14",
":  c #732C1E",
">  c #722E21",
",  c #7C3325",
"<  c #7B382D",
"1  c #812603",
"2  c #842A05",
"3  c #892D04",
"4  c #842D0B",
"5  c #8D3405",
"6  c #86310E",
"7  c #8A340B",
"8  c #8F3B0C",
"9  c #923405",
"0  c #933A05",
"q  c #9A3E05",
"w  c #923C0B",
"e  c #852E11",
"r  c #863012",
"t  c #8B3614",
"y  c #87331A",
"u  c #89361A",
"i  c #8A3A1E",
"p  c #8C3C23",
"a  c #954207",
"s  c #9B4205",
"d  c #9F4906",
"f  c #95420A",
"g  c #99430A",
"h  c #9D5007",
"j  c #984616",
"k  c #9C4A13",
"l  c #A44504",
"z  c #A54A05",
"x  c #AB4E06",
"c  c #A54909",
"v  c #B04F05",
"b  c #AC5304",
"n  c #A25609",
"m  c #AA500B",
"M  c #A55C09",
"N  c #B45305",
"B  c #B95705",
"V  c #B35B05",
"C  c #BB5A05",
"Z  c #B85E08",
"A  c #A14D12",
"S  c #A04E1A",
"D  c #AA6209",
"F  c #B76407",
"G  c #B36A09",
"H  c #BB7409",
"J  c #BF6216",
"K  c #B8611D",
"L  c #8E432C",
"P  c #974E25",
"I  c #91482F",
"U  c #9B5426",
"Y  c #8D4632",
"T  c #9C5936",
"R  c #A35827",
"E  c #A35A29",
"W  c #B05F25",
"Q  c #A05A33",
"!  c #B76423",
"~  c #C35D05",
"^  c #C55D0A",
"/  c #C56405",
"(  c #C96504",
")  c #C26D06",
"_  c #CC6C05",
"`  c #C6630B",
"'  c #C8630B",
"]  c #CA6B0A",
"[  c #D16F07",
"{  c #CE7405",
"}  c #CC7C06",
"|  c #CD730A",
" . c #CB7D08",
".. c #D47205",
"X. c #DA7704",
"o. c #D37A05",
"O. c #DD7904",
"+. c #D47508",
"@. c #C56414",
"#. c #C66618",
"$. c #C96719",
"%. c #C7691B",
"&. c #C86C1E",
"*. c #E07C04",
"=. c #C66D23",
"-. c #C86D23",
";. c #CA7027",
":. c #C7722E",
">. c #C9722D",
",. c #CA7732",
"<. c #C87935",
"1. c #CC7C3B",
"2. c #CE8105",
"3. c #C3830B",
"4. c #CA8D0A",
"5. c #D48305",
"6. c #DA8404",
"7. c #D28D05",
"8. c #DD8D05",
"9. c #D48308",
"0. c #CE920A",
"q. c #D39406",
"w. c #DE9206",
"e. c #D49A05",
"r. c #DE9C04",
"t. c #D09409",
"y. c #E18504",
"u. c #EB8605",
"i. c #E28B05",
"p. c #F18B04",
"a. c #E39404",
"s. c #E89604",
"d. c #E29A06",
"f. c #E99C05",
"g. c #E09308",
"h. c #FD9501",
"j. c #FD9A01",
"k. c #DBA409",
"l. c #E5A406",
"z. c #EEA005",
"x. c #E7A803",
"c. c #EAAD05",
"v. c #E1AC08",
"b. c #F3A706",
"n. c #FDA302",
"m. c #F5A905",
"M. c #FDAC02",
"N. c #EDB305",
"B. c #EEBA06",
"V. c #F3B406",
"C. c #FFB200",
"Z. c #F2BC05",
"A. c #F5BF05",
"S. c #F1B905",
"D. c #FEBA01",
"F. c #FEB801",
"G. c #FFBF01",
"H. c #FEBD02",
"J. c #FEBB02",
"K. c #F6C305",
"L. c #F5C306",
"P. c #FEC102",
"I. c #FFC101",
"U. c #FEC702",
"Y. c #F9C604",
"T. c #F8C505",
"R. c #FDC402",
"E. c #F6C804",
"W. c #FEC902",
"Q. c #FECD01",
"!. c #FECE02",
"~. c #FBCB04",
"^. c #F9C904",
"/. c #F9CC04",
"(. c #FECC02",
"). c #FFD101",
"_. c #FFD201",
"`. c #FFD301",
"'. c #FFD200",
"]. c #FDD103",
"[. c #FED102",
"{. c #FFD202",
"}. c #FFD402",
"|. c #FFD201",
/* pixels */
"                                                                                                                                ",
"                                                                                                                                ",
"                                                                                                                                ",
"                                                                                                                                ",
"                                                                                                                                ",
"                                                                                                                                ",
"                                                                                                                                ",
"                                                                                                                                ",
"                                                                                                                                ",
"                                                                                                                                ",
"                                                                                                                                ",
"                                                                                                                                ",
"                                                            &.` ` =.                                                            ",
"                                                          -.~ 6.l._ @.                                                          ",
"                                                        -.~ o.K.}.l./ J                                                         ",
"                                                      1.^ 6.T._._._.l.C !                                                       ",
"                                                      ' _ A._.Q.H.H.H. .x W                                                     ",
"                                                    @._ c._.Q.D.C.C.C.V.) c                                                     ",
"                                                  &.( l._.Q.H.C.C.C.C.C.f.b A                                                   ",
"                                                =./ l._.Q.D.C.C.C.C.C.C.C.a.z S                                                 ",
"                                                ' 5.~._.H.C.C.C.C.C.C.C.C.C.5.s E                                               ",
"                                              @.o.T._.U.C.C.C.C.C.C.C.C.C.C.m.F s E                                             ",
"                                            #._ S._.W.C.C.C.C.C.C.C.C.C.C.C.C.z.V g                                             ",
"                                          ;._ c._.Q.D.C.C.C.C.C.C.C.C.C.C.C.C.C.9.s k                                           ",
"                                        ,.~ d._._.P.C.C.C.C.C.C.C.C.C.C.C.C.C.C.M.+.s j                                         ",
"                                        ' 8.~._.U.C.C.C.C.C.C.C.C.C.C.C.C.C.C.C.C.j./ 0 P                                       ",
"                                      @.o.T._.W.C.C.C.C.C.C.C.C.C.C.C.C.C.C.C.C.C.j.p.N w T                                     ",
"                                    #...N._.Q.D.C.C.C.C.C.C.C.C.C.C.C.C.C.C.C.C.M.j.h.p.l t                                     ",
"                                  -.( c._._.P.C.C.C.C.C.C.C.C.C.C.C.C.C.C.C.C.M.j.h.h.h.X.9 t                                   ",
"                                <.` w.Q._._.H.C.C.C.C.C.C.C.C.C.C.C.C.C.C.C.M.j.h.h.h.h.h...3 i                                 ",
"                              <.` w._._._._.P.C.C.C.C.C.C.C.C.C.C.C.C.C.M.n.j.h.h.h.h.h.h.h.C 2 I                               ",
"                              @.( l.N.N.N.N.c.f.s.a.a.a.a.a.a.a.a.a.i.y.*.*.*.O.O.O.X.X.X.X.[ q e                               ",
"                            &.{ w.( / ~ ~ C C N v x z z d s s s s s s q q q 0 0 5 5 3 3 2 2 2 w 5 e                             ",
"                          -._ N.~.5.^                                                     p 3 0.k.a y                           ",
"                        >.' l._._.Z.{ J                                                   r G /.}.0.2 p                         ",
"                        ' w.~._._._.B.) K                                               u M B._._.~.H 4 Y                       ",
"                      @.5.~._._._.Q.Q.c.Z W                                           i a N._._._.W.K.M &                       ",
"                    #.{ Z._._._.W.D.C.C.5.m                                         L 8 t._._.Q.P.C.C.l.0 ;                     ",
"                  =._ Z._._._.W.D.C.C.C.M.} A                                       4 4._._.Q.D.C.C.C.C.g.4 ,                   ",
"                >.' d._._._.Q.D.C.C.C.C.C.m.) k                                   r D E._.Q.D.C.C.C.C.C.C.H % :                 ",
"                ' d._._._.Q.D.C.C.C.C.C.C.C.m.V k                               r M L._.W.D.C.C.C.C.C.C.C.C.G O                 ",
"              @.w.~._._._.P.C.C.C.C.C.C.C.C.C.i.x R                           p 0 v._.Q.H.C.C.C.C.C.C.C.C.C.b.f =               ",
"            #.o.T._._._.W.C.C.C.C.C.C.C.C.C.C.n.O.d U                       L w k._._.U.C.C.C.C.C.C.C.C.C.C.C.f.5 :             ",
"          -.+.Z._._._.W.C.C.C.C.C.C.C.C.C.C.C.n.h./ f U                     4 3._._.Q.C.C.C.C.C.C.C.C.C.C.C.C.M.+.@ >           ",
"        :.] N.}._._._.D.C.C.C.C.C.C.C.C.C.C.C.n.h.h.C f Q                 e n L._._.U.C.C.C.C.C.C.C.C.C.C.C.C.M.h.' @ >         ",
"        ' d._._._._.P.C.C.C.C.C.C.C.C.C.C.C.C.n.h.h.p.B w               e h N._._.W.C.C.C.C.C.C.C.C.C.C.C.C.C.n.h.h.x O         ",
"      $.8.~._._._.W.C.C.C.C.C.C.C.C.C.C.C.C.C.j.h.h.h.u.s 7           u 5 k._._.Q.H.C.C.C.C.C.C.C.C.C.C.C.C.C.j.h.h.u.g -       ",
"    -.o.K._._._._.H.C.C.C.C.C.C.C.C.C.C.C.C.n.h.h.h.h.h.X.0 6       p 5 4.~._._.U.C.C.C.C.C.C.C.C.C.C.C.C.C.M.h.h.h.h.u.3 =     ",
"  ,.| K._._._._.Q.C.C.C.C.C.C.C.C.C.C.C.M.j.h.h.h.h.h.h.h._ 3 r     4 H ]._._._.H.C.C.C.C.C.C.C.C.C.C.C.C.n.j.h.h.h.h.h._ * >   ",
"=.' c.}._._.}.}.Q.D.C.C.C.C.C.C.C.C.M.n.j.h.h.h.h.h.h.h.h.h.C 3 4 r D L.}.}.}._.H.C.C.C.C.C.C.C.C.C.C.C.n.j.h.h.h.h.h.h.h.] % < ",
"~ _ l.x.x.x.l.l.l.r.r.w.8.8.8.6.6.6.O.O.O.O.X.X.X..........._ 9 1 3 3.e.e.e.e.e.q.q.7.5.5.5.2.2.2.} { _ _ _ _ _ _ _ _ _ _ / 2 . ",
"@.~ ~ C B N N x z d d s s s s s s s s s s q 0 0 5 5 3 3 2 2 2 1 1 1 2 2 2 2 2 2 $ # # # @ + o o o X X X X . . X X o o o o o . = ",
"                                                                                                                                ",
"                                                                                                                                ",
"                                                                                                                                ",
"                                                                                                                                ",
"                                                                                                                                ",
"                                                                                                                                ",
"                                                                                                                                ",
"                                                                                                                                ",
"                                                                                                                                ",
"                                                                                                                                ",
"                                                                                                                                ",
"                                                                                                                                "
};
