/* XPM */
static char *_c6ffa35d01541f1b32817a0144397dbWG33rOo0PyxCHXKY[] = {
/* columns rows colors chars-per-pixel */
"84 84 216 2 ",
"   c None",
".  c #1F2324",
"X  c #252626",
"o  c #2A2727",
"O  c #262927",
"+  c #2A2B27",
"@  c #262628",
"#  c #282728",
"$  c #272928",
"%  c #292A29",
"&  c #3B2526",
"*  c #322C26",
"=  c #312C2B",
"-  c #312727",
";  c #2C3525",
":  c #2E3B24",
">  c #29332E",
",  c #2C3D2C",
"<  c #3B3127",
"1  c #303C24",
"2  c #3D352C",
"3  c #37342A",
"4  c #322A30",
"5  c #3D2E37",
"6  c #2A3530",
"7  c #2B3E36",
"8  c #593B1E",
"9  c #4D361E",
"0  c #423325",
"q  c #4A3626",
"w  c #4C3A27",
"e  c #42352C",
"r  c #4D3C2A",
"t  c #593E26",
"y  c #4B3839",
"u  c #4B312F",
"i  c #752326",
"p  c #692F2A",
"a  c #741F23",
"s  c #3C5D1C",
"d  c #324C1F",
"f  c #3F641B",
"g  c #334324",
"h  c #384726",
"j  c #344D21",
"k  c #3C5324",
"l  c #2D4C3D",
"z  c #334D3C",
"x  c #304C35",
"c  c #68421C",
"v  c #72441A",
"b  c #6A5717",
"n  c #426C1A",
"m  c #41671B",
"M  c #487916",
"N  c #457418",
"B  c #564028",
"V  c #5B4027",
"C  c #445C25",
"Z  c #574436",
"A  c #6D4926",
"S  c #724A24",
"D  c #784E29",
"F  c #7A5229",
"G  c #7D5327",
"H  c #6D523E",
"J  c #734D37",
"K  c #4D6D25",
"L  c #6C6138",
"P  c #493341",
"I  c #573649",
"U  c #6B3C56",
"Y  c #6B3C58",
"T  c #653C53",
"R  c #3F4140",
"E  c #315E49",
"W  c #3A5545",
"Q  c #2D5040",
"!  c #32674D",
"~  c #346D52",
"^  c #357A5A",
"/  c #357557",
"(  c #414241",
")  c #6B4B50",
"_  c #7B4062",
"`  c #717272",
"'  c #606060",
"]  c #AF381A",
"[  c #891E23",
"{  c #841F25",
"}  c #9B1C22",
"|  c #A61B22",
" . c #BA1921",
".. c #C41820",
"X. c #C21522",
"o. c #CC291B",
"O. c #935115",
"+. c #9F5713",
"@. c #8D5217",
"#. c #9F7E10",
"$. c #BA6517",
"%. c #8A5927",
"&. c #865526",
"*. c #985B24",
"=. c #8D5C34",
"-. c #A25E24",
";. c #AA6427",
":. c #BC6A22",
">. c #B66823",
",. c #BA702C",
"<. c #A35628",
"1. c #E6580C",
"2. c #C8670C",
"3. c #D57607",
"4. c #EA7605",
"5. c #FB7901",
"6. c #F37803",
"7. c #C67634",
"8. c #DC4811",
"9. c #895446",
"0. c #8B6347",
"q. c #9D6B44",
"w. c #A57248",
"e. c #B67A47",
"r. c #A87652",
"t. c #B87E57",
"y. c #86446A",
"u. c #8A466C",
"i. c #954A73",
"p. c #934A6B",
"a. c #A34D7F",
"s. c #897869",
"d. c #4F920F",
"f. c #4B8414",
"g. c #4E8C11",
"h. c #548E11",
"j. c #4E9110",
"k. c #519211",
"l. c #5C9C16",
"z. c #5B9818",
"x. c #50920E",
"c. c #758B12",
"v. c #669214",
"b. c #5FA016",
"n. c #64A519",
"m. c #69AA1A",
"M. c #6FB01D",
"N. c #72B31E",
"B. c #70AB1C",
"V. c #669F21",
"C. c #74B321",
"Z. c #78B921",
"A. c #6FA923",
"S. c #37805E",
"D. c #368361",
"F. c #388A65",
"G. c #378B66",
"H. c #359169",
"J. c #389269",
"K. c #3A9466",
"L. c #3AA76A",
"P. c #3DBD6E",
"I. c #6D9552",
"U. c #79AC5B",
"Y. c #66A25E",
"T. c #479663",
"R. c #589E60",
"E. c #51A161",
"W. c #3EC36D",
"Q. c #3EC970",
"!. c #3FD671",
"~. c #40DA71",
"^. c #4FCF6B",
"/. c #66D869",
"(. c #A2850E",
"). c #8A870F",
"_. c #F5DA3F",
"`. c #95B654",
"'. c #A3BB53",
"]. c #C9854D",
"[. c #D6884C",
"{. c #CA885B",
"}. c #D78B52",
"|. c #E39252",
" X c #E3945C",
".X c #D99262",
"XX c #EA9C67",
"oX c #F3A26A",
"OX c #FAA56E",
"+X c #EFA16A",
"@X c #B1C14F",
"#X c #C5CA4B",
"$X c #C8D44D",
"%X c #D1CD49",
"&X c #F5DA40",
"*X c #E7D845",
"=X c #A44D81",
"-X c #B15189",
";X c #BD5592",
":X c #AC5183",
">X c #C25595",
",X c #C8599A",
"<X c #D35BA1",
"1X c #DE5EAA",
"2X c #DA5DA7",
"3X c #E05FAB",
"4X c #E661AF",
"5X c #E961B1",
"6X c #EB62B3",
"7X c #B8B5B6",
"8X c #D7C7B8",
"9X c #D2D3D3",
"0X c #DFE0E1",
"qX c #FAFBFA",
"wX c #E0E2E1",
"eX c #EADACA",
/* pixels */
"                                                                                                                                                                        ",
"                                                                                                                                                                        ",
"                                                                                                                                                                        ",
"                                                                                                                                                                        ",
"                                                                                                                                                                        ",
"                                                                                                                                                                        ",
"                                                                                                                                                                        ",
"                                                                                                                                                                        ",
"                                                                                                                                                                        ",
"                                                                                                                                                                        ",
"                                                                                                                                                                        ",
"                                                                                                                                                                        ",
"                                                                                                                                                                        ",
"                                                                                                                                                                        ",
"                                                                                                                                                                        ",
"                                                                                                                                                                        ",
"                                                                          $ # @ @ @ @ @ @ $ $                                                                           ",
"                                                                          g 1 g h h h h g 1 g                                                                           ",
"                                                                      O O m g.z.C.C.C.C.z.g.f % O               $ O                                                     ",
"                                                                      + + n k.b.Z.Z.Z.Z.l.j.n + +               = =                                                     ",
"                                                    O O           O ; n M l.M.N.Z.Z.Z.Z.l.j.f.M n ; O $ O O O 5 :X;XT O                                                 ",
"                                                    # #           @ ; f.x.m.Z.Z.Z.Z.Z.Z.l.g.j.j.f.; @ $ % # # 5 <X5XY # $                                               ",
"                                                  k K K ,       $ @ : z.n.N.Z.Z.Z.C.n.n.z.j.c.(.#.@.@.q # y y.i.2X4XY # O                                               ",
"                                              $ # C Z.A.: @ @ # # # 1 A.Z.Z.Z.Z.Z.N.k.j.j.j.).5.5.5.5.v . U 5X5X5X4XU # O                                               ",
"                                              O @ C Z.A.k h g 1 ; # 1 V.N.M.M.M.M.B.c.c.c.c.(.6.6.2.2.D P y.4X5X5X4XY # O                                               ",
"                                              O @ C Z.Z.C.C.z.g.m % ; f.k.k.k.k.j.v.3.6.6.6.6.5.4.9 * i.1X3X5X5X5X4XU # O                                               ",
"                                              O @ C C.C.Z.Z.b.k.n + : f.k.g.g.h.h.c.4.5.6.4.4.6.3.q = =X6X5X5X5X5X4XY # O                                               ",
"                                              O @ j z.l.N.Z.N.M.l.M M g.j.s : b 3.3.6.5.O.8 8 8 p :X;X2X5X5X5X5X5X4XY # O                                               ",
"                                              O @ j j.k.N.Z.Z.Z.m.k.k.k.k.d X v 5.5.5.5.v . X X 5 <X6X5X5X5X5X5X5X5XY # O                                               ",
"                                                  g s m l.n.n.n.l.j.g.f s L 0.=.O.O.O.O.9.y.y.y.i.2X5X5X5X,Xu.u.u.u.I                                                   ",
"                                                    $ ; f.d.d.j.j.k.f.; # r.OXr.# @ @ # =X6X5X5X5X5X5X5X6X=X# # # #                                                     ",
"                                                    % ; N M M M M M n ; % r.OXt.Z r + % =X5X5X5X4X>X;X;X>Xp.q 0 % %                                                     ",
"                                                        ; + + + + + + % O r.oXXXXX{.2 # a.5X5X5X<XP = = 4 t ;.*.< $                                                     ",
"                                                        O O % % % % % % O r.oXXXoX.Xe # a.5X4X1X,XP 6 % # V :.;.< @                                                     ",
"                                                            $ % % % % % O =.7.[.oX.Xe # =X6X-XI ) 7X9X' X H  X].2 #                                                     ",
"                                                            O # # # # % O &.:.7.oX.X2 # a.6Xa.# R wXqX` X H oX.X2 X                                                     ",
"                                                            _ y.y.u._ 4 O &.:.;.0.0.y.y.>X6X=X# ( 0XqX` X H +XXXq.0.Z                                                   ",
"                                                        % % =X6X6X6X<X5 # &.:.&.# 5 <X6X5X6X=X# R 0XqX` . H +XoXoXoXH # O                                               ",
"                                                        O % i.>X;X>X-XI P F *.G q y -X>X;X>Xi.Z ) 8XeXs.r 0. X X{.{.H #                                                 ",
"                                                            = 4 4 = y ,X1XU + V >.-.e = = % ) XX X7.,.}.XX}.:.;.e *                                                     ",
"                                                            O $ $ $ y ,X1XU X t >.-.< + + O H XX X,.>.}.XX}.>.-.< $                                                     ",
"                                                                      I I 5 # * q w %.*.*.*.;.7.7.:.>.F Z r q w                                                         ",
"                                                                      X # # % $ X * ;.:.:.:.:.:.:.:.:.t X # @ $                                                         ",
"                                                                    3 r B B B B B V A S S S S S S S S 0 @ 0 A A 3                                                       ",
"                                                                  @ * G %.%.%.%.%.G * # # # # # # # # # @ t :.;.< $                                                     ",
"                                                                  < 0 A S S S F %.G * $ 6 7 7 7 7 7 7 > # w *.%.< $                                                     ",
"                                                            % $ w &.F < O + % w %.G * O ! G.G.G.G.F.G.l # O * *                                                         ",
"                                                            $ @ w &.F < + + + w &.F 3 % ~ J.J.J.J.J.G.Q % % % %                                                         ",
"                                                            $ # * < r w.e.e.e.=.0 2 ~ ^ L.Q.Q.Q.W.J.H.S./ / ^ ~ > O                                                     ",
"                                                            $ # % @ 2 ].|.|.|.q.# 6 D.J.W.~.~.~.!.K.J.J.J.J.J.D.> #                                                     ",
"                                                            $ % % @ 2 ].|.|.|.q.O 6 D.J.P.~.~.~.Q.~ E ^ J.J.J.D.> %                                                     ",
"                                                            % $ $ @ 2 ].|.|.|.q.# > D.J.P.~.!.!.W., # ~ J.J.J.D.> #                                                     ",
"                                                            0 u & @ 3 w.e.e.e.0.7 l K.L.P.Q.^./.^.z 7 ! ^ ^ ^ ~ > $                                                     ",
"                                                        % O {  .{ O % * * * * z G.J.Q.!.L.H.U.*X%XT.F.l % % % % $ O $ $ O                                               ",
"                                                        % # [ ..[ # % % % % % z T.T.^.~.L.K.U.*X%XT.F.z o * * * * * O % O                                               ",
"                                                        % # [ ..[ # > ~ ^ / / I.#X#X$X$X#X#X'.Y.R.z 7 i } ] 2.2.2.2.t @ O                                               ",
"                                                        % # [ ..[ # 6 D.J.J.J.U.&X_.&X&X&X&X@XJ.D.> # [ X.8.5.5.5.5.v @ O                                               ",
"                                                        % # [ ..| a p W E ^ J.R.`.`.`.`.`.`.I.E W p i ] 8.1.5.4.+.O.c                                                   ",
"                                                        % # [ ......| & $ ~ J.J.J.J.J.J.J.J.~ O & | ..1.5.5.5.4.0 @                                                     ",
"                                                        O O i | } | [ & $ E ^ ^ ^ ^ ^ ^ ^ ^ ! O & } } ] 2.2.2.$.0 $                                                     ",
"                                                            + - - - o % % % % % % % % % % % >     * - * * * * *                                                         ",
"                                                            O $ $ $ $ % % % $ $ $ % O O % O $     $ $ $ $ $ $ $                                                         ",
"                                                                                                                                                                        ",
"                                                                                                                                                                        ",
"                                                                                                                                                                        ",
"                                                                                                                                                                        ",
"                                                                                                                                                                        ",
"                                                                                                                                                                        ",
"                                                                                                                                                                        ",
"                                                                                                                                                                        ",
"                                                                                                                                                                        ",
"                                                                                                                                                                        ",
"                                                                                                                                                                        ",
"                                                                                                                                                                        ",
"                                                                                                                                                                        ",
"                                                                                                                                                                        ",
"                                                                                                                                                                        ",
"                                                                                                                                                                        ",
"                                                                                                                                                                        ",
"                                                                                                                                                                        ",
"                                                                                                                                                                        ",
"                                                                                                                                                                        ",
"                                                                                                                                                                        ",
"                                                                                                                                                                        "
};
