/* XPM */
static char *e1a096e746f34f6bf69a27a3d5cd10af1XEfcWbo3GgSwoOR[] = {
/* columns rows colors chars-per-pixel */
"64 64 199 2 ",
"   c None",
".  c #000000",
"X  c #090503",
"o  c #010A06",
"O  c #0F0903",
"+  c #040A09",
"@  c #140301",
"#  c #120D06",
"$  c #1F0404",
"%  c #00150C",
"&  c #031803",
"*  c #1D1309",
"=  c #150911",
"-  c #230404",
";  c #210E01",
":  c #231305",
">  c #291909",
",  c #391903",
"<  c #341806",
"1  c #2A1F10",
"2  c #360707",
"3  c #052405",
"4  c #072E07",
"5  c #093D09",
"6  c #073308",
"7  c #032819",
"8  c #192B16",
"9  c #0B3316",
"0  c #342309",
"q  c #2C2211",
"w  c #322614",
"e  c #382A15",
"r  c #362915",
"t  c #3F350C",
"y  c #103F29",
"u  c #0B3E25",
"i  c #52190C",
"p  c #7F120F",
"a  c #731510",
"s  c #48280B",
"d  c #552905",
"f  c #5A320D",
"g  c #57320C",
"h  c #4C3016",
"j  c #493519",
"k  c #573619",
"l  c #573919",
"z  c #492B10",
"x  c #63360F",
"c  c #773307",
"v  c #703E11",
"b  c #603B1A",
"n  c #69323C",
"m  c #0B470B",
"M  c #0C530C",
"N  c #104910",
"B  c #117D12",
"V  c #0F7611",
"C  c #277F11",
"Z  c #347F11",
"A  c #00452C",
"S  c #01492E",
"D  c #0E482B",
"F  c #005939",
"G  c #045334",
"H  c #334627",
"J  c #00663A",
"K  c #007C3D",
"L  c #007135",
"P  c #126D3C",
"I  c #306D35",
"U  c #6F441F",
"Y  c #71451F",
"T  c #774212",
"R  c #665513",
"E  c #554231",
"W  c #684F28",
"Q  c #764D22",
"!  c #72325C",
"~  c #6B364B",
"^  c #7A3563",
"/  c #532344",
"(  c #006E46",
")  c #006743",
"_  c #00724A",
"`  c #00794E",
"'  c #007C50",
"]  c #784051",
"[  c #625C56",
"{  c #696969",
"}  c #831210",
"|  c #921411",
" . c #B81916",
".. c #BC3D0F",
"X. c #CB1C19",
"o. c #D41D1A",
"O. c #884B15",
"+. c #914F15",
"@. c #995317",
"#. c #AD5D17",
"$. c #AC5E1A",
"%. c #A35817",
"&. c #9C6D0E",
"*. c #AF601A",
"=. c #B1611A",
"-. c #8C6A35",
";. c #946C36",
":. c #987037",
">. c #A86826",
",. c #B46B26",
"<. c #B8752D",
"1. c #A47C3E",
"2. c #A87A3C",
"3. c #BE7A32",
"4. c #D1540D",
"5. c #C36B0D",
"6. c #DD610B",
"7. c #D96C0E",
"8. c #C87511",
"9. c #E2660C",
"0. c #813869",
"q. c #903F68",
"w. c #8F3E74",
"e. c #9E7A43",
"r. c #9C447F",
"t. c #138312",
"y. c #178D17",
"u. c #1B961B",
"i. c #278716",
"p. c #01843E",
"a. c #2CBD2C",
"s. c #29B629",
"d. c #3DB72A",
"f. c #66973D",
"g. c #48B72A",
"h. c #2EC32E",
"j. c #00874D",
"k. c #018957",
"l. c #008758",
"z. c #008A59",
"x. c #078C57",
"c. c #168E54",
"v. c #009457",
"b. c #009C55",
"n. c #009958",
"m. c #169054",
"M. c #3F8D44",
"N. c #00A64E",
"B. c #00A457",
"V. c #00AE58",
"C. c #00BB57",
"Z. c #00BD58",
"A. c #00B556",
"S. c #408C44",
"D. c #5BA449",
"F. c #51A04A",
"G. c #55BD48",
"H. c #5BC449",
"J. c #99982C",
"K. c #B39521",
"L. c #C48037",
"P. c #C2C33A",
"I. c #D6C936",
"U. c #F4CD2F",
"Y. c #FDD42F",
"T. c #FFD630",
"R. c #FFD930",
"E. c #EFC82D",
"W. c #BD8E48",
"Q. c #B98B46",
"!. c #BF9049",
"~. c #89B243",
"^. c #C8974C",
"/. c #D59C4C",
"(. c #D39F50",
"). c #DDA34F",
"_. c #DCA553",
"`. c #DFA855",
"'. c #D5A151",
"]. c #E2AB56",
"[. c #E7AF58",
"{. c #CC9A6A",
"}. c #CFA179",
"|. c #D0A279",
" X c #E6B261",
".X c #9F4581",
"XX c #AA4B8A",
"oX c #B75095",
"OX c #B54F93",
"+X c #D55EAD",
"@X c #F56BC6",
"#X c #F96DCA",
"$X c #F76CC8",
"%X c #FF71D1",
"&X c #B1A699",
"*X c #B4B5B6",
"=X c #F3E3D5",
"-X c white",
";X c #F3EEE5",
/* pixels */
"                                                                                                                                ",
"                                                                                                                                ",
"                                                                                                                                ",
"                                                                                                                                ",
"                                                                                                                                ",
"                                                                                                                                ",
"                                                                                                                                ",
"                                                                                                                                ",
"                                                                                                                                ",
"                                                        . . . . . . . .                                                         ",
"                                                      & 4 4 4 6 N N 6 4 &                                                       ",
"                                                    . 3 B t.t.y.a.h.y.B 3 . . . .                                               ",
"                                                  & & 5 t.t.y.u.a.h.u.y.N 4 3 3 &                                               ",
"                                              . . 6 B B t.y.a.h.h.h.h.h.a.a.u.t.m . .                                           ",
"                                              . . 6 Z C t.y.s.a.h.h.a.a.g.g.i.V m & &                                           ",
"                                  . .     . . . . d 7.&.t.t.t.y.a.h.y.t.&.7.g o 5 B M . . . .                                   ",
"                                  # #     = = X . d 4.&.C i.C i.d.d.i.C &.4.d . 5 t.M . X # #                                   ",
"                              . # 1.Q.r . w.+X~ . O ; d 5.5.5.5.8.8.5.5.d ; O . 5 t.M . q Q.1.# .                               ",
"                              . # !._.e . r.#X^ X X . s 6.6.6.6.6.6.6.6.s . X X 5 t.M . e _.!.# .                               ",
"                              . # W._.r . r.$X+XOXOXoXq., , , , , , , , q.oXOXoX~ 3 & . e _.W.# .                               ",
"                              . # W._.e . r.@X@X$X$X#XXX. . . . . . . . XX#X$X#X0.. . . e _.W.# .                               ",
"                              . # >.3.:.;.~ / XX@X@X@X+X.Xr.r.r.r.r.r..X+X@X@X$X0.. w -.:.3.>.# .                               ",
"                              . O +.=./.[.j . ^ #X@X@X$X#X#X#X#X#X#X#X#X$X@X@X#X0.. l [./.=.+.O .                               ",
"                              . O +.$.Q W ] 0.^ ! ! ! ! ! ! ! ! ! ! ! ! ! ! ! ! ^ 0.] W Q $.+.O .                               ",
"                              . O +.$.: . .X%X! . . . . . . . . . . . . . . . . ! %XXX. : $.+.O .                               ",
"                              . O f x z s ~ w.n s E { { { [ z s s z [ { { { E s n w.~ s z x f O .                               ",
"                                  . X O.=.0 . f #.|.-X-X-X=X,.$.$.,.=X-X-X-X|.#.f . 0 =.O.X .                                   ",
"                                  . X x T s < T #.}.-X;X*X&X3.<.<.3.&X*X;X-X}.#.T < s T x X .                                   ",
"                                      X X v *.$.#.}.-X*X+ w (.].].(.w + *X-X}.#.$.*.v X .                                       ",
"                                      . . f O.@.#.{.;X&X. q (.].].(.q . &X;X{.#.@.O.f . .                                       ",
"                                      . . X X x *.L. Xe.. q (.].].(.q . e. XL.=.x X X . .                                       ",
"                                      % % % % h @.<.).1.* j '.].].'.j * 1.).<.@.h % % % %                                       ",
"                                  . o K N.j.` u @ g ,.<.^.^.`.].].`.^.^.<.,.g @ u ` j.N.K o .                                   ",
"                                  X + p.A.n.z.A o s %.,.(.'._._._._.'.(.,.%.s o A z.n.A.p.+ X                                   ",
"                              . X h k 8 7 J z.` ( D : > q h ,.,.,.,.h q > : D ( ` z.J 7 8 k h X .                               ",
"                              . X b U * . F k.k.z.G . . . : @.$.$.@.: . . . G z.k.k.F . * U b X .                               ",
"                              . X l Y k h 8 7 F z.j.p.K J G 1 < < 0 G J K p.j.z.F 7 8 h k Y l X .                               ",
"                              . X l Y Y Y > . A z.b.Z.V.z.( o . . o ( z.V.Z.b.z.A . > Y Y Y l X .                               ",
"                              . O ;.2.j > # . S z.v.b.b.B.b.L L L L b.B.A.C.b.z.S . # > j 2.;.O .                               ",
"                              . # !._.w . . . S z.k.l.n.C.C.Z.Z.Z.Z.C.C.C.C.b.z.S . . . w _.!.# .                               ",
"                              . # W.`.-.W 1 . S z.k.k.v.B.B.C.C.C.C.B.B.B.B.v.z.S . 1 W -.`.W.# .                               ",
"                              . # W.].[.[.l . A z.l.l.z.z.v.A.C.C.A.v.z.l.l.l.z.A . l [.[.].W.# .                               ",
"                              . # W.`.1.-.H 7 I D.D.D.M.F P G.H.H.G.P F M.D.D.D.I 7 H -.1.`.W.# .                               ",
"                              . # !._.e . F z.~.Y.T.R.K.. 0 E.T.T.E.0 . K.R.T.Y.~.z.F . e _.!.# .                               ",
"                              . # :.1.1 . A ) f.P.P.P.J.t R U.T.T.U.R t J.P.P.P.f.) A . 1 1.:.# .                               ",
"                                  X X . . . . S x.x.x.F.U.Y.T.T.T.T.Y.U.F.x.x.x.S . . . . X X                                   ",
"                                  . . . . @ - y _ _ _ S.I.I.I.I.I.I.I.I.S._ _ _ y - @ . . . .                                   ",
"                                      . . p X.i o o o 9 c.m.c.c.c.c.m.c.9 o o o i X.p . .                                       ",
"                                      . . } X.a @ @ @ 7 ` ' ' ' ' ' ' ` 7 @ @ @ a X.} . .                                       ",
"                                          $ - c 4... .p % % % % % % % % p  ...4.c - $                                           ",
"                                          . . c 9.4.o.| X . . . . . . X | o.4.9.c . .                                           ",
"                                              < , < 2 - . .         . . - 2 < , <                                               ",
"                                              . . . . . . .         . . . . . . .                                               ",
"                                                                                                                                ",
"                                                                                                                                ",
"                                                                                                                                ",
"                                                                                                                                ",
"                                                                                                                                ",
"                                                                                                                                ",
"                                                                                                                                ",
"                                                                                                                                ",
"                                                                                                                                ",
"                                                                                                                                ",
"                                                                                                                                "
};
