/* XPM */
static char *xpm_[] = {
/* columns rows colors chars-per-pixel */
"54 54 215 2 ",
"   c #343535",
".  c #343937",
"X  c #363739",
"o  c #363D3B",
"O  c #3B3B3C",
"+  c #393837",
"@  c #2F3232",
"#  c #423D3C",
"$  c #49393B",
"%  c #54363B",
"&  c #55373C",
"*  c #752E36",
"=  c #67343B",
"-  c #743239",
";  c #34433D",
":  c #364D3E",
">  c #3C473D",
",  c #284E3F",
"<  c #44423D",
"1  c #4B413C",
"2  c #4E4937",
"3  c #55473B",
"4  c #4C573F",
"5  c #57563D",
"6  c #674638",
"7  c #734A35",
"8  c #744D3A",
"9  c #794D36",
"0  c #6B553C",
"q  c #655F3E",
"w  c #68563A",
"e  c #7B5538",
"r  c #63623E",
"t  c #686637",
"y  c #7C643C",
"u  c #6B642F",
"i  c #3E3D41",
"p  c #453E42",
"a  c #623F45",
"s  c #195E4B",
"d  c #2B4D43",
"f  c #354441",
"g  c #344A41",
"h  c #394E41",
"j  c #235346",
"k  c #275646",
"l  c #365142",
"z  c #3A5343",
"x  c #355C45",
"c  c #385C46",
"v  c #026E4E",
"b  c #0E674D",
"n  c #16674D",
"m  c #06704E",
"M  c #016E51",
"N  c #0B6C51",
"B  c #186B51",
"V  c #037451",
"C  c #0C7B54",
"Z  c #097A55",
"A  c #117B54",
"S  c #197753",
"D  c #26674C",
"F  c #32644A",
"G  c #396A48",
"H  c #2B754E",
"J  c #39784C",
"K  c #2D6850",
"L  c #434243",
"P  c #49474A",
"I  c #534F4A",
"U  c #4B564A",
"Y  c #525743",
"T  c #585357",
"R  c #7D5742",
"E  c #456744",
"W  c #586648",
"Q  c #4C7B49",
"!  c #457749",
"~  c #5C6452",
"^  c #557954",
"/  c #656D5B",
"(  c #67715D",
")  c #6A7C46",
"_  c #737963",
"`  c #903035",
"'  c #A12C34",
"]  c #CC272F",
"[  c #D3242C",
"{  c #CC2731",
"}  c #855A39",
"|  c #86673D",
" . c #887932",
".. c #986E32",
"X. c #A47C32",
"o. c #835944",
"O. c #8A6441",
"+. c #956A44",
"@. c #8B7842",
"#. c #997246",
"$. c #8B6555",
"%. c #A17A4E",
"&. c #A17648",
"*. c #A17957",
"=. c #A37B61",
"-. c #148455",
";. c #1D8955",
":. c #37894D",
">. c #3A984E",
",. c #248E55",
"<. c #238D5A",
"1. c #2A8D58",
"2. c #2B8856",
"3. c #3A8750",
"4. c #328C57",
"5. c #2D9355",
"6. c #2B925A",
"7. c #269157",
"8. c #339553",
"9. c #389753",
"0. c #359952",
"q. c #3C9C52",
"w. c #329459",
"e. c #359A59",
"r. c #2E8862",
"t. c #488A4C",
"y. c #598B4A",
"u. c #4E924C",
"i. c #59984B",
"p. c #4A8857",
"a. c #469A52",
"s. c #6A9647",
"d. c #619D51",
"f. c #4AA44F",
"g. c #57A64F",
"h. c #44A152",
"j. c #4DA651",
"k. c #5CA454",
"l. c #54A951",
"z. c #5CAD51",
"x. c #50A353",
"c. c #5FB051",
"v. c #65B04E",
"b. c #6AB24D",
"n. c #62AE53",
"m. c #60A553",
"M. c #64B252",
"N. c #68B252",
"B. c #6AAF49",
"V. c #56956E",
"C. c #54936C",
"Z. c #7A896D",
"A. c #79956E",
"S. c #54A070",
"D. c #BA9433",
"F. c #B4903A",
"G. c #AF9031",
"H. c #B4B133",
"J. c #D9B92B",
"K. c #CEAD30",
"L. c #E0BB28",
"P. c #91C03A",
"I. c #B9CC25",
"U. c #B7C829",
"Y. c #A6C62A",
"T. c #CBD41D",
"R. c #F2D714",
"E. c #FFEA03",
"W. c #FEE309",
"Q. c #FBE409",
"!. c #FDE718",
"~. c #C5C727",
"^. c #ECCA29",
"/. c #E7CA27",
"(. c #F0D524",
"). c #8D9C4B",
"_. c #B68E4A",
"`. c #AA8359",
"'. c #A3AC4A",
"]. c #998D76",
"[. c #899876",
"{. c #989C7E",
"}. c #83856C",
"|. c #BA946B",
" X c #B99476",
".X c #AC8367",
"XX c #8DAD49",
"oX c #D3A749",
"OX c #C39C78",
"+X c #C0976C",
"@X c #CCA67E",
"#X c #DCC34C",
"$X c #AF9C85",
"%X c #B19E86",
"&X c #BBA589",
"*X c #B7B08E",
"=X c #8CAB84",
"-X c #C9AA87",
";X c #CAB499",
":X c #D9BB99",
">X c #D4B08C",
",X c #E0BB98",
"<X c #AEC794",
"1X c #B8D39C",
"2X c #B8CF9D",
"3X c #BCD5A0",
"4X c #C6D9A6",
"5X c #D8C8A3",
"6X c #EED8B3",
"7X c #FDDBB6",
"8X c #FEDDB9",
"9X c #F0CBA8",
"0X c #FFE1BD",
"qX c #FFE4C1",
"wX c None",
/* pixels */
"wXwXwXwXwXwXwXwXwXwXwXwXwXwXwXwXwXwXwXwXwXwXwXwXwXwXwXwXwXwXwXwXwXwXwXwXwXwXwXwXwXwXwXwXwXwXwXwXwXwXwXwXwXwX",
"wXwXwXwXwXwXwXwXwXwXwXwXwXwXwXwXwXwXwXwXwXwXwXwXwXwXwXwXwXwXwXwXwXwXwXwXwXwXwXwXwXwXwXwXwXwXwXwXwXwXwXwXwXwX",
"wXwXwXwXwXwXwXwXwXwXwXwXwXwXwXwXwXwXwXwXwXwXwXwXwXwXwXwXwXwXwXwXwXwXwXwXwXwXwXwXwXwXwXwXwXwXwXwXwXwXwXwXwXwX",
"wXwXwXwXwXwXwXwXwXwXwXwXwXwXwXwXwXwXwXwXwXwXwXwXwXwXwXwXwXwXwXwXwXwXwXwXwXwXwXwXwXwXwXwXwXwXwXwXwXwXwXwXwXwX",
"wXwXwXwXwXwXwXwXwXwXwXwXwXwXwXwXwXwXwXwXwXwXwXwXwXwXwXwXwXwXwXwXwXwXwXwXwXwXwXwXwXwXwXwXwXwXwXwXwXwXwXwXwXwX",
"wXwXwXwXwXwXwXwXwXwXwXwXwXwXwXwXwXwXwXwXwXwXwXwXwXwXwXwXwXwXwXwXwXwXwXwXwXwXwXwXwXwXwXwXwXwXwXwXwXwXwXwXwXwX",
"wXwXwXwXwXwXwXwXwXwXwXwXwXwXwXwXwXwXwXwXwXwXwXwXwXwXwXwXwXwXwXwXwXwXwXwXwXwXwXwXwXwXwXwXwXwXwXwXwXwXwXwXwXwX",
"wXwXwXwXwXwXwXwXwXwXwXwXwXwXwXwXwXwXwXwXwXwXwXwXwXwXwXwXwXwXwXwXwXwXwXwXwXwXwXwXwXwXwXwXwXwXwXwXwXwXwXwXwXwX",
"wXwXwXwXwXwXwXwXwXwXwXwXwXwXwXwXwXwXwXwXwXwXwXwXwXwXwXwXwXwXwXwXwXwXwXwXwXwXwXwXwXwXwXwXwXwXwXwXwXwXwXwXwXwX",
"wXwXwXwXwXwXwXwXwXwXwXwXwXwXwXwXwXwXwXwXwXwXo.} O.%.%.*.*.%.%.+.9 e wXwXwXwXwXwXwXwXwXwXwXwXwXwXwXwXwXwXwXwX",
"wXwXwXwXwXwXwXwXwXwXwXwXwXwXwXwXwXwXwXwXwXwXO.} X.D.D.D.D.D.D.G.X.X.#XwXwXwXwXwXwXwXwXwXwXwXwXwXwXwXwXwXwXwX",
"wXwXwXwXwXwXwXwXwXwXwXwXwXwXwXwXwXwXwXwXX # _.oX^.W.W.W.W.W.W.W.Q.E.!.Q.J.&.%.wXwXwXwXwXwXwXwXwXwXwXwXwXwXwX",
"wXwXwXwXwXwXwXwXwXwXwXwXwXwXwXwXwXwXwXc G ! ).'.H.U.I.I.I.I.I.I.I.T.Q.E.R.K.K._.wXwXwXwXwXwXwXwXwXwXwXwXwXwX",
"wXwXwXwXwXwXwXwXwXwXwXwXwXwXwXwXwXO   G n.M.N.N.M.v.v.M.B.v.v.B.b.B.T.E.W.W.!.&.&.wXwXwXwXwXwXwXwXwXwXwXwXwX",
"wXwXwXwXwXwXwXwXwXwXwXwXwXwXwXO o G ! u.M.M.M.N.M.M.M.M.M.n.v.M.N.b.P.Y.~.^.^.L.J.F.8 wXwXwXwXwXwXwXwXwXwXwX",
"wXwXwXwXwXwXwXwXwXwXwXwXwXwXwX. ; u.M.M.M.M.M.M.M.M.M.M.M.M.M.M.N.N.v.m.XXK.J.(.!.G.7 o.wXwXwXwXwXwXwXwXwXwX",
"wXwXwXwXwXwXwXwXwXwXwXwXL O h G J j.M.M.M.M.M.M.M.M.M.M.M.M.M.M.M.M.M.M.B.d.s.u u e +.#.wXwXwXwXwXwXwXwXwXwX",
"wXwXwXwXwXwXwXwXwXwXwXwXL i l 6.e.l.z.M.M.M.M.b.M.M.M.M.M.M.M.M.M.M.n.v.j.>.:.;   0 #.`.wXwXwXwXwXwXwXwXwXwX",
"wXwXwXwXwXwXwXwXwXwXwXwXL i g r.e.l.M.M.M.M.M.M.M.M.M.M.M.M.M.M.M.M.v.c.j.0.:.; + L wXwXwXwXwXwXwXwXwXwXwXwX",
"wXwXwXwXwXwXwXwXwXwXwXwXU o x 6.0.j.l.z.M.M.M.M.M.M.M.M.M.M.M.M.M.v.z.l.h.>.:.: ; U wXwXwXwXwXwXwXwXwXwXwXwX",
"wXwXwXwXwXwXwX|.*.`.@X-X^ M N 6.8.>.0.j.c.M.M.M.M.M.N.M.M.M.M.M.M.M.h.0.8.8.5.Z b Z.>X@X#.%.wXwXwXwXwXwXwXwX",
"wXwXwXwXwXwXwX X|.OX,X:XC.M Z r.8.8.5.h.z.M.M.M.M.N.N.M.M.M.M.M.v.c.q.8.8.>.,.V V A.:X>X+X|..XwXwXwXwXwXwXwX",
"wXwXwXwXwXo.8 OX0X0X0X7XC.M Z 6.8.w.5.a.z.M.M.M.M.M.M.M.M.M.M.M.v.c.>.5.5.5.7.V V =X7X7X0X7X*.8 $.wXwXwXwXwX",
"wXwXwXwXwX$.o..X|.|.@X@Xp.V Z 7.5.-.-.,.h.j.z.M.M.M.M.M.M.M.M.M.j.f.;.-.-.5.7.V V A.@X@X X X*.o.wXwXwXwXwXwX",
"wXwXwXwXwXwXwX$.9 e ..#.G V C 7.,.Z v C 7.0.l.c.M.M.M.M.M.M.c.l.0.5.Z v A 7.;.V b ^ #...9 8 wXwXwXwXwXwXwXwX",
"wXwXwXwXwXwXwXwXwX$.o.} w Y G C A k , K 6.8.q.h.c.M.c.M.c.l.h.h.w.4.k , D C S U 4 0 } o.wXwXwXwXwXwXwXwXwXwX",
"wXwXwXwXwXwXwXwXwXwX7 6 8 e 5 n n > O c w.e.8.0.h.l.c.c.l.h.e.5.5.4.: O d N n w e 7 7 7 wXwXwXwXwXwXwXwXwXwX",
"wXwXwXwXwXwXwXwXwXwX1 $ G./.H.w 5 # O c w.w.8.8.e.h.e.h.q.0.5.e.w.2.: X < 5 u J./. .$ L wXwXwXwXwXwXwXwXwXwX",
"wXwXwXwXwXwXwXwXwXwXL O G./.K.e 7 # O x 1.<.w.8.8.8.0.0.0.0.0.7.,.,.: O % 9 | J./. .+ < wXwXwXwXwXwXwXwXwXwX",
"wXwXwXwXwXwXwXwXwXwXwXwX2 2 5 #.O.1 O d V Z <.w.8.9.8.9.0.0.0.;.V b ; O 3 #.| 2 2 5 wXwXwXwXwXwXwXwXwXwXwXwX",
"wXwXwXwXwXwXwXwXwXwXwXwX> > 3 R R $ O d s n <.w.8.>.9.9.0.0.5.;.n s ; O 3 | e < O wXwXwXwXwXwXwXwXwXwXwXwXwX",
"wXwXwXwXwXwXwXwXwXwXwXwXwXwXwX  + O O O O f 2.5.w.8.0.0.0.0.5.H ; O O O +   + wXwXwXwXwXwXwXwXwXwXwXwXwXwXwX",
"wXwXwXwXwXwXwXwXwXwXwXwXwXwXU / / x d f i i S -.,.w.8.8.w.;.-.D ; ; ; d E ( / < wXwXwXwXwXwXwXwXwXwXwXwXwXwX",
"wXwXwXwXwXwXwXwXwXwXwXwXO   ~ 3X1Xr.M j X o b V -.w.8.8.5.C V s . . s M S.4X<Xi   wXwXwXwXwXwXwXwXwXwXwXwXwX",
"wXwXwXwXwXwXwXwXwXwXf + ( Z.[.3X1Xr.v n D x j j H 8.8.5.5.D j k G F N V S.1X2X[.Z./   wXwXwXwXwXwXwXwXwXwXwX",
"wXwXwXwXwXwXwXwXwXwX#   {.4X4X2X<X2.v A <.3.f O F 5.5.,.7.z + l 4.1.C v V.1X1X4X4X_   O wXwXwXwXwXwXwXwXwXwX",
"wXwXwXwXwXwXwXwXX I $X&X5X6X*X~ / 4 4 ! 5.2.f O s C Z Z C g O : 4.4.E 4 Y ~ ( 5X6X;X$X$Xp O wXwXwXwXwXwXwXwX",
"wXwXwXwXwXwXwXL X I 6X0X7X7X%XX ; 3 8 W :.J ; O d b N N b g O : 3.t.t w 2 . < :X8X8XqX;XO O wXwXwXwXwXwXwXwX",
"wXwXwXwXwXwXwXL X I 9X8X9X:X$Xb n u.d.y.q w 6 6 # ; ; f f 3 6 6 R r y.d.3.n K &X:X6XqX;XO O wXwXwXwXwXwXwXwX",
"wXwXwXwXwXwXwXP X I ;X:X%X X}.n B a.v.y.r r q q 4 : h h l 4 q q r W d.v.9.b D ].$X-X:X$X< O wXwXwXwXwXwXwXwX",
"wXwXwXwXwXwXwXwXwXwXL O # i O i g u.M.k.k.k.k.z.k.k.k.k.k.k.k.k.m.g.v.v.J o O O + # O L wXwXwXwXwXwXwXwXwXwX",
"wXwXwXwXwXwXwXwXwXwXi i O O O # # Q u.u.x.z.c.M.n.M.n.n.n.n.n.n.l.i.u.y.E $ $ X X X O p wXwXwXwXwXwXwXwXwXwX",
"wXwXwXwXwXwXwXwXwXwXwXwXi O $ = = $ O c 0.q.z.c.M.M.N.M.M.n.n.l.>.:.> ; $ = = + O p wXwXwXwXwXwXwXwXwXwXwXwX",
"wXwXwXwXwXwXwXwXwXwXwXwXwXL p & & $ & 3 y O.@.@.) Q Q Q Q ) @. .| y 3 $ % & a L p wXwXwXwXwXwXwXwXwXwXwXwXwX",
"wXwXwXwXwXwXwXwXwXwXwXwXwXwXwXO # = - ' ] [ [ { = O i O i ` ] [ [ { ` - & O p wXwXwXwXwXwXwXwXwXwXwXwXwXwXwX",
"wXwXwXwXwXwXwXwXwXwXwXwXwXwXwXwXwX$ % = * * * - a wXwXwXwX= * * - - & & p wXwXwXwXwXwXwXwXwXwXwXwXwXwXwXwXwX",
"wXwXwXwXwXwXwXwXwXwXwXwXwXwXwXwXwXL i i i i i p T wXwXwXwXP i p i i p p I wXwXwXwXwXwXwXwXwXwXwXwXwXwXwXwXwX",
"wXwXwXwXwXwXwXwXwXwXwXwXwXwXwXwXwXwXwXwXwXwXwXwXwXwXwXwXwXwXwXwXwXwXwXwXwXwXwXwXwXwXwXwXwXwXwXwXwXwXwXwXwXwX",
"wXwXwXwXwXwXwXwXwXwXwXwXwXwXwXwXwXwXwXwXwXwXwXwXwXwXwXwXwXwXwXwXwXwXwXwXwXwXwXwXwXwXwXwXwXwXwXwXwXwXwXwXwXwX",
"wXwXwXwXwXwXwXwXwXwXwXwXwXwXwXwXwXwXwXwXwXwXwXwXwXwXwXwXwXwXwXwXwXwXwXwXwXwXwXwXwXwXwXwXwXwXwXwXwXwXwXwXwXwX",
"wXwXwXwXwXwXwXwXwXwXwXwXwXwXwXwXwXwXwXwXwXwXwXwXwXwXwXwXwXwXwXwXwXwXwXwXwXwXwXwXwXwXwXwXwXwXwXwXwXwXwXwXwXwX",
"wXwXwXwXwXwXwXwXwXwXwXwXwXwXwXwXwXwXwXwXwXwXwXwXwXwXwXwXwXwXwXwXwXwXwXwXwXwXwXwXwXwXwXwXwXwXwXwXwXwXwXwXwXwX",
"wXwXwXwXwXwXwXwXwXwXwXwXwXwXwXwXwXwXwXwXwXwXwXwXwXwXwXwXwXwXwXwXwXwXwXwXwXwXwXwXwXwXwXwXwXwXwXwXwXwXwXwXwXwX",
"wXwXwXwXwXwXwXwXwXwXwXwXwXwXwXwXwXwXwXwXwXwXwXwXwXwXwXwXwXwXwXwXwXwXwXwXwXwXwXwXwXwXwXwXwXwXwXwXwXwXwXwXwXwX"
};
