/* XPM */
static char *d52dc7f403c64ed1e8509a06c35095cbZLpdgke9t7Gr5C5q[] = {
/* columns rows colors chars-per-pixel */
"51 64 169 2 ",
"   c None",
".  c #1F200F",
"X  c #22210F",
"o  c #2B260E",
"O  c #2E290F",
"+  c #342A0D",
"@  c #3C2E0C",
"#  c #3E300E",
"$  c #222211",
"%  c #2C2615",
"&  c #2D2A13",
"*  c #352D13",
"=  c #352B1B",
"-  c #3A2C1C",
";  c #2A321B",
":  c #333417",
">  c #3E3315",
",  c #3F3A16",
"<  c #3D311B",
"1  c #36381A",
"2  c #292929",
"3  c #332D21",
"4  c #2C3C23",
"5  c #2E332A",
"6  c #323324",
"7  c #393327",
"8  c #313528",
"9  c #43330C",
"0  c #4A360B",
"q  c #4F3B0F",
"w  c #533A0A",
"e  c #593F0D",
"r  c #412E1F",
"t  c #443513",
"y  c #493712",
"u  c #433A17",
"i  c #4A3A14",
"p  c #433619",
"a  c #403E1A",
"s  c #4C3D1B",
"d  c #533E13",
"f  c #503F18",
"g  c #442F20",
"h  c #453323",
"j  c #4C3224",
"k  c #453B26",
"l  c #413B28",
"z  c #503426",
"x  c #543528",
"c  c #59372A",
"v  c #5D392C",
"b  c #623B2E",
"n  c #663D31",
"m  c #693E32",
"M  c #30452A",
"N  c #334A2E",
"B  c #394B2E",
"V  c #3E5430",
"C  c #3E5A37",
"Z  c #395A3A",
"A  c #46471F",
"S  c #5B4314",
"D  c #53421B",
"F  c #5A451B",
"G  c #5E481B",
"H  c #624817",
"J  c #634B1A",
"K  c #454820",
"L  c #474129",
"P  c #4A4428",
"I  c #4A4E2D",
"U  c #524224",
"Y  c #584623",
"T  c #5C4A22",
"R  c #41502B",
"E  c #505527",
"W  c #51572F",
"Q  c #53592F",
"!  c #585E2B",
"~  c #5E4130",
"^  c #405732",
"/  c #415934",
"(  c #405D38",
")  c #525D31",
"_  c #634D20",
"`  c #6C5322",
"'  c #60502B",
"]  c #6B572E",
"[  c #725927",
"{  c #765D2C",
"}  c #654434",
"|  c #6E4336",
" . c #6F4838",
".. c #724237",
"X. c #764338",
"o. c #7D463B",
"O. c #7E483D",
"+. c #466037",
"@. c #4C6135",
"#. c #546534",
"$. c #5C6530",
"%. c #5C6933",
"&. c #606730",
"*. c #636B31",
"=. c #7E6433",
"-. c #7D5141",
";. c #81473D",
":. c #82493E",
">. c #826837",
",. c #856C3B",
"<. c #854C41",
"1. c #8B4B42",
"2. c #934E46",
"3. c #815444",
"4. c #8D5A49",
"5. c #925147",
"6. c #955349",
"7. c #9C524A",
"8. c #905A4A",
"9. c #A1564E",
"0. c #A2584F",
"q. c #A55B51",
"w. c #A95F54",
"e. c #8D7443",
"r. c #9A6354",
"t. c #A46055",
"y. c #AB6155",
"u. c #AF6458",
"i. c #A76E5E",
"p. c #AE6A5C",
"a. c #B16659",
"s. c #B46A5D",
"d. c #B86E5F",
"f. c #B76E61",
"g. c #B96F60",
"h. c #BE7565",
"j. c #BD7363",
"k. c #BE7669",
"l. c #B57E6D",
"z. c #C17767",
"x. c #C2796A",
"c. c #C77F6F",
"v. c #C47C6C",
"b. c #C67F71",
"n. c #B68171",
"m. c #C7806F",
"M. c #C78071",
"N. c #C98172",
"B. c #C88374",
"V. c #CB8476",
"C. c #CD8777",
"Z. c #CA8475",
"A. c #CD8778",
"S. c #CE8979",
"D. c #CD887A",
"F. c #CF8A7A",
"G. c #D08B7B",
"H. c #D28C7D",
"J. c #D18C7C",
"K. c #D38D7E",
"L. c #D69283",
"P. c #D59282",
"I. c #DA9787",
"U. c #D99686",
"Y. c #DD9B8B",
"T. c #DE9C8C",
"R. c #DF9D8D",
"E. c #DE9D8C",
"W. c #DE9C8C",
/* pixels */
"                                    . . . . . . . . . . . . . . .                                     ",
"                              $ X $ r x x x x x x x x x x x x x r $ X $                               ",
"                          $ % v -.-.5.7.7.7.7.7.7.7.7.7.7.7.7.7.5.-.-.v % $                           ",
"                        $ z ;.7.g.j.d.9.7.7.7.7.7.7.7.7.7.7.7.9.d.j.g.7.;.z $                         ",
"                      $ x 2.7.7.7.y.s.0.0.q.q.0.7.7.7.0.q.q.0.0.s.y.7.7.7.2.x $                       ",
"                    . % v ;.7.7.7.7.7.y.j.j.j.d.y.w.y.d.j.j.j.y.7.7.7.7.7.;.v % .                     ",
"              $ - n m m m b v 1.7.7.y.j.j.m.H.C.h.j.h.C.H.v.j.j.y.7.7.1.v b m m m n - $               ",
"            % m <.7.7.7.7.1.X.x v 2.a.j.v.I.R.R.B.s.D.Y.R.I.j.g.a.2.v x X.1.7.7.7.7.<.m %             ",
"          % | 7.7.7.7.7.7.7.9.7.O.n 6.s.x.L.R.R.D.j.D.R.R.I.x.a.6.n O.7.9.7.7.7.7.7.7.7.| %           ",
"        % | 7.7.7.7.7.7.7.0.s.j.d.:.n 6.y.k.G.b.h.j.h.b.G.M.s.6.n :.d.j.s.0.7.7.7.7.7.7.7.| %         ",
"      % | 7.7.7.7.7.7.7.7.y.j.h.h.d.:.b 6.s.j.t. .}  .t.j.s.6.b :.d.h.h.j.y.7.7.7.7.7.7.7.7.| %       ",
"    $ m 7.7.7.7.7.7.7.7.7.y.x.H.L.C.s.:.n 7.6. .4.8.4. .6.7.n :.d.V.L.H.h.y.7.7.7.7.7.7.7.7.7.m $     ",
"  $ = 1.7.7.7.7.7.7.7.0.y.j.G.R.R.Y.h.a...x x r.d.0.d.r.x x ..s.N.Y.R.R.B.a.y.0.7.7.7.7.7.7.7.1.= $   ",
"  X n 7.w.q.7.7.7.7.q.d.j.d.D.R.R.R.M.a.X.h h l.d.7.d.l.h h X.a.N.R.R.R.H.j.j.d.q.7.7.7.7.q.w.7.n X   ",
". - 1.y.j.u.7.7.7.7.a.j.j.d.x.I.Y.D.j.5.v 8.} n.N.s.N.n.} 8.v 5.j.D.R.L.h.j.j.j.a.7.7.7.7.u.j.y.1.- . ",
". x y.j.j.y.7.7.7.7.q.s.j.j.j.h.f.j.q.j h y.} i.L.H.L.r.~ y.h j q.j.v.h.s.j.j.s.q.7.7.7.7.y.j.j.y.x . ",
". x a.j.a.7.7.7.2.o.X.o.O.O.O.o.X.O.1.= g y. .O.a.a.f.X. .y.g = 1.:.O.O.O.O.O.o.X.o.2.7.7.7.a.j.a.x . ",
". x w.y.7.7.o.m b v } } } } } } } v v % g s.p.m n m n m p.s.g % v v } } } } } } } v b m o.7.7.y.w.x . ",
". x 7.7.<.v b m O.s.h.j.h.v.H.D.z.d.<.v j t.b.p.3.-.3.p.b.t.j v <.d.z.D.H.v.h.j.h.s.O.m b v <.7.7.x . ",
". j 7.1.b X.2.7.q.j.j.j.x.I.R.R.D.j.d.5.- b t.V.H.H.H.V.t.b - 5.d.h.G.R.R.I.x.j.j.j.q.7.2.X.b 1.7.j . ",
"$ $ v b 1.7.7.7.0.d.j.g.f.I.R.R.B.s.j.0.X.- b <.<.<.<.<.b - X.0.j.g.A.R.R.I.f.g.j.d.0.7.7.7.1.b v $ $ ",
"$ X g 1.w.q.7.7.7.q.d.j.j.v.V.V.h.j.s.9.1.g g c x x x c g g 1.9.s.s.j.D.A.x.j.j.d.q.7.7.7.q.w.1.g X $ ",
"X - 1.y.j.u.7.7.7.7.a.j.j.j.s.j.j.s.9.1.b m 1.7.7.7.7.7.1.m b 1.9.s.j.j.d.d.j.j.a.7.7.7.7.u.j.y.1.- X ",
". x 7.s.s.9.7.7.7.7.s.j.j.j.j.j.s.9.1.b :.9.u.s.s.s.s.s.u.9.:.b 1.9.s.j.j.j.j.j.s.7.7.7.7.9.s.s.7.x . ",
". x 7.7.7.7.7.7.7.w.j.j.j.j.j.s.9.1.b :.y.g.j.h.v.v.v.h.j.g.y.:.b 1.9.s.j.j.j.j.j.w.7.7.7.7.7.7.7.x . ",
". x 7.7.7.7.7.7.7.y.j.j.j.j.s.9.1.b :.y.j.j.h.V.Y.Y.Y.N.d.j.j.y.:.b 1.9.s.j.j.j.j.y.7.7.7.7.7.7.7.x . ",
". x 7.2...7.7.7.7.0.s.j.j.s.9.1.b :.y.j.j.j.s.L.R.R.R.L.f.j.j.j.y.:.b 1.9.s.j.j.s.0.7.7.7.7...2.7.x . ",
". x 2.c o.7.7.7.7.7.9.q.q.9.6.v o.w.j.j.j.j.j.L.R.R.R.H.h.j.j.j.j.w.o.v 6.9.q.q.9.7.7.7.7.7.o.c 2.x . ",
". x v g 2.7.7.7.7.7.7.7.7.7.:.c 6.a.j.j.j.j.j.x.F.L.H.f.j.j.j.j.j.a.6.c :.7.7.7.7.7.7.7.7.7.2.g v x . ",
". r g X.7.7.7.7.7.7.7.7.7.7.x o.q.j.j.j.j.j.j.j.s.h.h.j.j.j.j.j.j.j.q.o.x 7.7.7.7.7.7.7.7.7.7.X.g r . ",
"  $ $ o.7.7.7.7.u.q.7.7.7.X.b 2.q.j.j.j.j.j.j.j.j.j.j.j.j.j.j.j.j.j.q.2.b X.7.7.7.q.u.7.7.7.7.o.$ $   ",
"    $ o.7.7.7.a.j.j.q.7.7.b ..7.q.j.j.d.q.q.s.j.j.j.j.j.s.q.q.d.j.j.q.7...b 7.7.q.j.j.a.7.7.7.o.$     ",
"    % o.7.7.7.d.j.j.w.7.X.v 7.7.7.y.s.q.7.7.9.s.j.h.j.s.9.7.7.q.s.y.7.7.6.v X.7.w.j.j.d.7.7.7.o.%     ",
"    % o.7.7.7.d.j.j.w.7.X.v 7.7.7.7.7.7.7.7.7.9.u.a.u.9.7.7.7.7.7.7.7.7.7.v X.7.w.j.j.d.7.7.7.o.%     ",
"    $ z 2.7.7.w.j.s.9.7.X.v 7.7.7.7.7.7.7.7.7.7.7.7.7.7.7.7.7.7.7.7.7.7.7.v X.7.9.s.j.w.7.7.2.z $     ",
"    . % 1.7.7.7.q.9.7.1.c 1.7.7.7.7.7.7.7.7.7.7.7.7.7.7.7.7.7.7.7.7.7.7.7.1.c 1.7.9.q.7.7.7.1.% .     ",
"    X % o.7.7.7.7.7.7.1.j 7.7.7.7.7.7.7.7.7.7.7.7.7.7.7.7.7.7.7.7.7.7.7.7.7.j 1.7.7.7.7.7.7.o.% X     ",
"    $ $ = o.7.7.7.7.7.1.z 7.7.7.9.w.w.7.7.7.7.7.7.7.7.7.7.7.7.7.w.w.9.7.7.7.z 1.7.7.7.7.7.o.= $ $     ",
"    $ $ $ = o.7.7.7.7.1.z 7.7.7.s.j.j.u.7.7.7.7.7.7.7.7.7.7.7.u.j.j.s.7.7.7.z 1.7.7.7.7.o.= $ $ $     ",
"  + 0 F F @ - o.7.7.7.1.z 7.7.9.j.j.j.d.7.7.7.7.7.7.7.7.7.7.7.d.j.j.j.9.7.7.z 1.7.7.7.o.- @ F F 0 +   ",
"  + H >.=.S + = X.1.9.1.g 1.7.9.s.j.j.s.7.7.7.7.7.7.7.7.7.7.7.s.j.j.s.9.7.1.g 1.9.1.X.= + S =.>.H +   ",
"  + S { ` S + $ $ g m 1.j v 7.7.0.a.u.9.7.7.7.7.1.m 1.7.7.7.7.9.u.u.0.7.7.v j 1.m g $ $ + S ` { S +   ",
"  + w S S w + $ $ $ $ x :.v o.7.7.7.7.7.7.7.7.1.j $ j 1.7.7.7.7.7.7.7.7.o.v :.x $ $ $ $ + w S S w +   ",
"  A 9 0 0 @ X $ $ $ $ $ - = = j <.1.1.1.1.1.v - $ $ $ - v 1.1.1.1.1.<.j = = - $ $ $ $ $ X @ 0 0 9 A   ",
"  &.K : ; ; $ X $ $ $ $ . $ X o * % % % % % $ . $ $ $ . $ % % % % % * o X $ . $ $ $ $ X $ ; ; : K &.  ",
"    *.$.@.( M ; $ $ $ $ $ $ $ y + & > $ o o $ X + + + X $ o o $ > & + y $ $ $ $ $ $ $ ; M ( @.$.*.    ",
"    *.*.*.%.#.C 4 $ + @ @ + $ D % p _ & * t X @ w w w @ X t * & _ p % D $ + @ @ + $ 4 C #.%.*.*.*.    ",
"    *.*.*.*.*.+.N $ 9 w w @ $ D 9 * * O i u # w 0 0 0 w # u i O * * 9 D $ @ w w 9 $ N +.*.*.*.*.*.    ",
"      *.*.*.*.%.N * S J J w + & f d w d i t S 0 + + + 0 S t i d w d f & + w J J S * N %.*.*.*.*.      ",
"        *.*.*.*.R > e w J J 9 X & s s i t S 0 # S S S # 0 S t i s s & X 9 J J w e > R *.*.*.*.        ",
"          *.*.*.E O + @ w J J 0 + $ X # S y # S ` ` ` S # y S # X $ + 0 J J w @ + O E *.*.*.          ",
"            *.! , 0 9 9 @ w H e 9 + 0 S y @ S J i = i J S @ y S 0 + 9 e H w @ 9 9 0 , ! *.            ",
"            E u G ` S w 9 @ w w 9 @ w y > w F 7 = = = 7 F w > y w @ 9 w w @ 9 w S ` G u E             ",
"            % F ' ] ` e 9 @ w w 9 + 0 - 0 f 7 < S S S < 7 f 0 - 0 + 9 w w @ 9 e ` ] ' F %             ",
"            % Y & = T e 9 + w 0 + $ & = t 3 < G [ =.[ G < 3 t = & $ + 0 w + 9 e T = & Y %             ",
"            & y i & f q & & & : N N N 6 t - S [ ,.e.,.[ S - t 6 N N N : & & & q f & i y &             ",
"              a y s y 1 V ^ ^ ^ ( Z Z 8 < p J =.,.,.,.=.J p < 8 Z Z ( ^ ^ ^ V 1 y s y a               ",
"                & $ $ B %.*.*.*.%.@.C 5 p J ` Y U U U Y ` J p 5 C @.%.*.*.*.%.B $ $ &                 ",
"                          *.*.*.*.*.#.B s Y l 2 2 2 2 2 l Y s B #.*.*.*.*.*.                          ",
"                              *.*.*.*.) l F = 2 2 2 2 2 = F l ) *.*.*.*.                              ",
"                                  *.*.$.L _ S - 3 3 3 - S _ L $.*.*.                                  ",
"                                        Q P U S S S S S U P Q                                         ",
"                                          Q I L k k k L I Q                                           ",
"                                            *.Q W Q W Q *.                                            "
};
