/* XPM */
static char *_4623c6d7c5b4e828593fa59338da276KW4G0Og4AAwwEJDn[] = {
/* columns rows colors chars-per-pixel */
"56 64 199 2 ",
"   c None",
".  c #000000",
"X  c #090603",
"o  c #070609",
"O  c #0B0B0B",
"+  c #090804",
"@  c #140B02",
"#  c #1A0E02",
"$  c #160D0A",
"%  c #1E1001",
"&  c #1C150D",
"*  c #171700",
"=  c #131215",
"-  c #19161A",
";  c #100F13",
":  c #271707",
">  c #341C03",
",  c #291E11",
"<  c #3B250E",
"1  c #382106",
"2  c #313100",
"3  c #3F3F00",
"4  c #3A2A19",
"5  c #1C1A21",
"6  c #2D2D2D",
"7  c #26242B",
"8  c #2C2935",
"9  c #2F2C38",
"0  c #3D3D3D",
"q  c #363438",
"w  c #302C39",
"e  c #421E1E",
"r  c #462402",
"t  c #4A2702",
"y  c #562D03",
"u  c #5C3103",
"i  c #5F350A",
"p  c #462C14",
"a  c #5C3A16",
"s  c #5F3C18",
"d  c #4E350F",
"f  c #6D3904",
"g  c #663503",
"h  c #753D03",
"j  c #793F04",
"k  c #522E2F",
"l  c #743535",
"z  c #5B5B00",
"x  c #7B4004",
"c  c #774A1C",
"v  c #696900",
"b  c #707000",
"n  c #42413F",
"m  c #584838",
"M  c #67492A",
"N  c #644B34",
"B  c #79522C",
"V  c #3D3A45",
"C  c #424243",
"Z  c #484848",
"A  c #4B4559",
"S  c #504A5F",
"D  c #5F4F55",
"F  c #575757",
"G  c #514E4C",
"H  c #71584C",
"J  c #585367",
"K  c #6D5B71",
"L  c #656565",
"P  c #696969",
"I  c #696664",
"U  c #6A627D",
"Y  c #666076",
"T  c #797979",
"R  c #843C3C",
"E  c #895621",
"W  c #825E38",
"Q  c #945D24",
"!  c #97622A",
"~  c #8E6337",
"^  c #8C7F2F",
"/  c #AD6D2A",
"(  c #A66725",
")  c #B46D23",
"_  c #B6722C",
"`  c #B57737",
"'  c #935311",
"]  c #C87E30",
"[  c #946B40",
"{  c #88694A",
"}  c #B27E48",
"|  c #A66674",
" . c #DD6564",
".. c #E16666",
"X. c #E56869",
"o. c #76C23D",
"O. c #47AD53",
"+. c #6BBD42",
"@. c #70BF40",
"#. c #838100",
"$. c #969600",
"%. c #A7A700",
"&. c #ABAB1E",
"*. c #A6A427",
"=. c #CD8234",
"-. c #D98935",
";. c #E18E37",
":. c #E6923A",
">. c #EB943A",
",. c #E89238",
"<. c #BAC005",
"1. c #8CC938",
"2. c #D4D501",
"3. c #C3C300",
"4. c #F2F200",
"5. c #F4FA05",
"6. c #FEFE00",
"7. c #FBFD37",
"8. c #B98650",
"9. c #BB8852",
"0. c #B49474",
"q. c #B08E6C",
"w. c #C89157",
"e. c #D99D5F",
"r. c #D99651",
"t. c #CC8B48",
"y. c #E69948",
"u. c #F09E49",
"i. c #DEA05F",
"p. c #EDA459",
"a. c #F4A95C",
"s. c #F1A555",
"d. c #DCA060",
"f. c #EBAA66",
"g. c #E7A866",
"h. c #F4AD62",
"j. c #F0AF6B",
"k. c #F6B26B",
"l. c #FBB56D",
"z. c #FBB46A",
"x. c #FFFF5E",
"c. c #FFFF40",
"v. c #FFFF6A",
"b. c #6D6682",
"n. c #79718E",
"m. c #7A7290",
"M. c #857594",
"N. c #887EA2",
"B. c #867CA0",
"V. c #858585",
"C. c #84818C",
"Z. c #969696",
"A. c #9B9B9B",
"S. c #8C82A7",
"D. c #9288AC",
"F. c #9D92BB",
"G. c #9E98B0",
"H. c #9A8EB7",
"J. c #A39BB9",
"K. c #A2A2A2",
"L. c #B4B3BA",
"P. c #CCB89D",
"I. c #F9BE81",
"U. c #C988A0",
"Y. c #C68DA9",
"T. c #C492B2",
"R. c #CDB7A5",
"E. c #E2D686",
"W. c #FCFC92",
"Q. c #A89CC8",
"!. c #AEA2CC",
"~. c #AFA2D0",
"^. c #B3A6D5",
"/. c #B5A9D7",
"(. c #B5A9D9",
"). c #BAACDC",
"_. c #B5A7D8",
"`. c #BEB3DC",
"'. c #C3BED1",
"]. c #C7BCE2",
"[. c #C8C8C8",
"{. c #CCC6DC",
"}. c #D4D4D4",
"|. c #D5CEE8",
" X c #DBD4EB",
".X c #D9D4E6",
"XX c #CCC3E3",
"oX c #E1DCEF",
"OX c #E4DFF0",
"+X c #EBEBEB",
"@X c gray89",
"#X c #EAE6F3",
"$X c #EAE6F4",
"%X c #F5F5F5",
"&X c #FDFAF4",
"*X c #F5F3FA",
"=X c #FFFFFF",
"-X c #F8F7F8",
";X c #F8F6F0",
/* pixels */
"                                        . . . . . . . .       . . . . .                                         ",
"                                        . . . . . . . .       . . . . .                                         ",
"                                      @ % % > < < : % %       < < > % % @                                       ",
"                                  . . > h h ) ;.-.' h g X . < -.;.) h h > . .                                   ",
"                                  . . > h h ) >.;.' j f @ . < ;.>.) h h > . .                                   ",
"                                2 b b ^ 0.0.} ) ) i r > X . : ) ) } 0.0.^ b b 2                                 ",
"                            . . 3 5.6.v.=X=Xq.h h # . . . . # h h q.=X=Xv.6.5.3 . .                             ",
"                            . . 3 4.6.v.=X=Xq.h h % . . . . % h h q.=X=Xv.6.4.3 . .                             ",
"                            . . * z z *.x.x.E.R.P.*.%.%.%.%.*.P.R.E.x.x.*.z z * . .                             ",
"                            . . . . . v 6.6.W.=X=Xc.6.6.6.6.c.=X=XW.6.6.v . . . . .                             ",
"                            . . . X . v 4.4.W.&X&X7.5.5.5.5.7.&X&XW.4.4.v . X . . .                             ",
"                      . . . . . @ u g y 2 2 &.7.7.1.@.@.@.@.1.7.7.&.2 2 y g u # . . . . .                       ",
"                      . . . . . % h x r . . $.6.6.o.O.O.O.O.o.6.6.$.. . r x h % . . . . .                       ",
"                      , , , X . % h x t @ @ #.2.2.1.+.+.+.+.1.2.2.#.@ @ t x h % . X , , ,                       ",
"                . . X } g.w.& . % h j h f f 1 * * <.5.5.5.5.<.* * 1 f f h j h % . & w.g.} X . .                 ",
"                . . X 8.l.e.& . % h j x x x > . X 3.6.6.6.6.3.X . > x x x j h % . & e.l.8.X . .                 ",
"                . . X 8.l.e.& . % h j g t t : . X #.%.%.%.%.#.X . : t t g j h % . & e.l.8.X . .                 ",
"                . . X 8.l.e.& . % h x r . . . . . . . . . . . . . . . . r x h % . & e.l.8.X . .                 ",
"                . . X 8.l.e.& . # h x r . . . . . . . . . . . . . . . . r x h # . & e.l.8.X . .                 ",
"                . . X ` s.y.~ W M 1 > m V.V.V.V.V.B c c c c B V.V.V.V.V.m > 1 M W ~ y.s.` X . .                 ",
"                . . X / >.>.h.l.9.X . P =X=X=X=X=Xj.,.>.>.,.j.=X=X=X=X=XP . X 9.l.h.>.>./ X . .                 ",
"                . . X / ;.:.h.l.8.X . P =X=X=X-X&Xf.;.:.:.;.f.&X-X=X=X=XP . X 8.l.h.:.;./ X . .                 ",
"                . . . 1 p a t.u.` X . P =X=XZ.Z G w.a.a.a.a.w.G Z Z.=X=XP . X ` u.t.a p 1 . . .                 ",
"                . . . . . # =.>./ X . P =X=XL . . 8.l.k.k.l.8.. . L =X=XP . X / >.=.# . . . . .                 ",
"                . . . X X : _ -.! X . I &X&XI . X 8.l.k.k.l.8.X . I &X&XI . X ! -._ : X X . . .                 ",
"                . . . t g u : : % . . N I.I.N . X 8.l.k.k.l.8.X . N I.I.N . . % : : u g t . . .                 ",
"                . . . u x f X . . . . M k.k.M . X 8.l.k.k.l.8.X . M k.k.M . . . . X f x u . . .                 ",
"                . . . u x f : # @ . . M h.h.W 4 4 w.l.k.k.l.w.4 4 W h.h.M . . @ # : f x u . . .                 ",
"            . . . . . u x h h h y . . s >.:.p.g.f.k.k.k.k.k.k.f.g.p.:.>.s . . y h h h x u . . . . .             ",
"            . . . . . u x x x x u . . a >.>.a.l.l.k.k.k.k.k.k.l.l.a.>.>.a . . u x x x x u . . . . .             ",
"            . . 0 P L d r t t t p A A D E E ~ [ [ r.s.s.s.s.r.[ ~ ~ E E D A A p t t t r d L P 0 . .             ",
"            . . Z.=X-XV . . . . 8 ~.).U . . . . X / >.:.:.>./ X . . . . U ).~.8 . . . . V -X=XZ.. .             ",
"            . . Z.=X-X0 . . . . 8 ~.(.U . . . . X / >.:.:.>./ X . . . . U (.~.8 . . . . 0 -X=XZ.. .             ",
"                G P I { [ W $ . q .X#XC.. . V b.U N a a a a N U b.V . . C.#X.Xq . $ W [ { I P G                 ",
"                . . . 8.l.d.& . 0 -X=XZ.. . b.).^.8 . . . . 8 ^.).b.. . Z.=X-X0 . & d.l.8.. . .                 ",
"                . . X 8.l.e., . n +X-XZ.o o b.).^.w X o o X w ^.).b.o o Z.-X+Xn . , e.l.8.X . .                 ",
"            . . . . X 8.l.f.` _ ! 0 q J S.S.'.*X#XJ.N.S.S.N.J.#X*X'.S.S.J q 0 ! _ ` f.l.8.X . . . .             ",
"            . . . . X 8.l.h.>.>./ . . A ).).OX=X=X]._.(.(._.].=X=XOX).).A . . / >.>.h.l.8.X . . . .             ",
"            . . $ , , t.h.p.=.] Q X . V H.H.{.*X*XXX`.`.`.`.XX*X*X{.H.F.V . X Q ] =.p.h.t., , $ . .             ",
"            . . W g.i.y.>.=., @ @ . . o = ; n.`.`.#X-X-X-X-X#X`.`.n.; = o . . @ @ , =.>.y.i.g.W . .             ",
"            . . [ l.k.u.>.=.# . . . . . . . U (./.$X=X=X=X=X$X/.).U . . . . . . . # =.>.u.k.l.[ . .             ",
"          . . . ~ a.p.` ( ! k V 7 . . $ e e M.(./. X#X#X#X#X X/.(.M.e e $ . . 7 V k ! ( ` p.a.~ . . .           ",
"      . . . . . E >.-.< . - F./.B.X . k  . .Y.(.^././././././.^.^.Y. . .k . X B./.F.- . < -.>.E . . . . .       ",
"      . . . . . E >.;.< . = F.(.B.. . k X.X.Y.(.(.(.(.(.(.(.(.(.(.Y.X.X.k . . B.(.F.= . < ;.>.E . . . . .       ",
"      . . q T T H c c D J Y {. X'.T T I l l | U.U.U.U.U.U.U.U.U.U.| l l I T T '. X{.Y J D c c H T T q . .       ",
"      . . P =X=XP . o N.).`.*X=X=X=X=XZ.. . R X.................X.R . . Z.=X=X=X=X*X`.).N.o . P =X=XP . .       ",
"      . . P =X=XP . X N.(.`.*X=X=X=X=XZ.. . R X.................X.R . . Z.=X=X=X=X*X`.(.N.X . P =X=XP . .       ",
"      . . P =X=XP . o L.$X#X=X=X=X=X=XZ.. . K T.T.T.T.T.T.T.T.T.T.K . . Z.=X=X=X=X=X#X$XL.o . P =X=XP . .       ",
"      . . P =X=XP . o [.=X=X=X=X=X=X=XZ.. . U ).(.(.(.(.(.(.(.(.).U . . Z.=X=X=X=X=X=X=X[.o . P =X=XP . .       ",
"      = O T =X=XP . o L.=X-X+X+X%X=X=XA.= = U Q.Q.^.^.^.^.^.^.Q.Q.U = = A.=X=X%X+X+X-X=XL.o . P =X=XT O =       ",
". . 0 [.}.@X=X=XP . o D.].!.V 7 L -X=X+X}.}.P 5 7 D.(.^.^.(.D.7 5 P }.}.+X=X-XL 7 V !.].D.o . P =X=X@X}.[.0 . . ",
". . C =X=X=X=X=XL . . N.).F.= . 0 -X=X=X=X=XL . . N.).(.(.).N.. . L =X=X=X=X-X0 . = F.).N.. . L =X=X=X=X=XC . . ",
". . 0 [.[.@X=X=XV.6 q n.D.m.= . 0 -X=X=X=X=XV.6 q n.D.D.D.D.n.q 6 V.=X=X=X=X-X0 . = m.D.n.q 6 V.=X=X@X[.[.0 . . ",
"      O o T =X=X-X%X+XC o o . . 0 -X=X=X=X=X-X%X+XC o O O o C +X%X-X=X=X=X=X-X0 . . o o C +X%X-X=X=XT o O       ",
"      . . P =X=X=X=X-XC . . . . n -X=X=X=X=X=X=X-X0 . . . . 0 -X=X=X=X=X=X=X-Xn . . . . C -X=X=X=X=XP . .       ",
"      . . F K.K.K.K.A.7 . . . . q  XOXOXOXOX*X=X-XV.F F F F V.-X=X*XOXOXOXOX Xq . . . . 7 A.K.K.K.K.F . .       ",
"            . . . . . . . . . . 8 ~.^.^.^.^.oX=X=X=X=X=X=X=X=X=X=XoX^.^.^.^.~.8 . . . . . . . . . .             ",
"            . . . . . . . . . . 8 ~.(.(.(.(.oX=X=X=X=X=X=X=X=X=X=XoX(.(.(.(.~.8 . . . . . . . . . .             ",
"                      . . . . . = A S S S S G. X|.|.|.|.|.|.|.|. XG.S S S S A = . . . . .                       ",
"                      . . . . . . . . . . . U (.^.^.^.^.^.^.^.^.(.U . . . . . . . . . . .                       ",
"                      . . . . . . . . . . . Y ^.~.~.~.~.~.~.~.~.^.Y . . . . . . . . . . .                       ",
"                            . . . . . . . . 5 w 9 9 9 9 9 9 9 9 w 5 . . . . . . . .                             ",
"                            . . . . . . . . . . . . . . . . . . . . . . . . . . . .                             ",
"                            . . . . . . . . . . . . . . . . . . . . . . . . . . . .                             "
};
