/* XPM */
static char *xpm_[] = {
/* columns rows colors chars-per-pixel */
"48 48 203 2 ",
"   c #262626",
".  c #282626",
"X  c #272826",
"o  c #2C2A27",
"O  c #262728",
"+  c #292729",
"@  c #272828",
"#  c #2A2A2A",
"$  c #362C27",
"%  c #3A2E25",
"&  c #332B2A",
"*  c #3A2828",
"=  c #2B322D",
"-  c #2E3923",
";  c #313D24",
":  c #37312B",
">  c #3B322B",
",  c #383627",
"<  c #392C33",
"1  c #2C3A33",
"2  c #2B3531",
"3  c #373932",
"4  c #5B3C1D",
"5  c #5C2427",
"6  c #423124",
"7  c #42352C",
"8  c #4D3B2A",
"9  c #49382B",
"0  c #442E3A",
"q  c #4C3C31",
"w  c #4A313E",
"e  c #463534",
"r  c #513B33",
"t  c #4F3825",
"y  c #772525",
"u  c #3A521D",
"i  c #3D5B1C",
"p  c #384D1F",
"a  c #3E601C",
"s  c #354325",
"d  c #3B4A27",
"f  c #3E5423",
"g  c #2D4439",
"h  c #2E4A3D",
"j  c #2E4437",
"k  c #34493C",
"l  c #415F1A",
"z  c #497716",
"x  c #446A19",
"c  c #56442E",
"v  c #465D25",
"b  c #5A4632",
"n  c #474C33",
"m  c #6E4C2A",
"M  c #784C28",
"N  c #7A512C",
"B  c #674A36",
"V  c #6D5938",
"C  c #4A6228",
"Z  c #547228",
"A  c #6D6134",
"S  c #75733A",
"D  c #716913",
"F  c #593648",
"G  c #6B3A56",
"H  c #683C54",
"J  c #773E5D",
"K  c #2E5441",
"L  c #315A47",
"P  c #33644D",
"I  c #326747",
"U  c #347351",
"Y  c #77415D",
"T  c #6D4941",
"R  c #517249",
"E  c #7C4061",
"W  c #6B6B6C",
"Q  c #B2281D",
"!  c #9F1C21",
"~  c #A51B22",
"^  c #AD1A21",
"/  c #832026",
"(  c #834918",
")  c #964F16",
"_  c #965014",
"`  c #9F5312",
"'  c #A75712",
"]  c #BB5F10",
"[  c #8A592B",
"{  c #885527",
"}  c #965A24",
"|  c #9A5D26",
" . c #874B38",
".. c #8B492E",
"X. c #A25F23",
"o. c #97653E",
"O. c #8A7C35",
"+. c #A96324",
"@. c #BC6B22",
"#. c #B66925",
"$. c #AF6C36",
"%. c #85790F",
"&. c #DA6B0A",
"*. c #DA640C",
"=. c #E36E08",
"-. c #EE7806",
";. c #FE7B04",
":. c #F67B05",
">. c #C27129",
",. c #CB7936",
"<. c #976848",
"1. c #B97845",
"2. c #AB7450",
"3. c #8A4566",
"4. c #9B4A76",
"5. c #9A496D",
"6. c #AA507D",
"7. c #C27E46",
"8. c #54920E",
"9. c #4F8514",
"0. c #538C12",
"q. c #508712",
"w. c #549210",
"e. c #599511",
"r. c #5D9B12",
"t. c #7D8D0D",
"y. c #649F17",
"u. c #61900E",
"i. c #6DA919",
"p. c #6BA418",
"a. c #72AE1C",
"s. c #76B31F",
"d. c #5D8325",
"f. c #689028",
"g. c #76AB25",
"h. c #76B221",
"j. c #7AB522",
"k. c #7DBA22",
"l. c #6FA521",
"z. c #378557",
"x. c #37814D",
"c. c #3A8A67",
"v. c #3A8C69",
"b. c #388563",
"n. c #39916A",
"m. c #3B986C",
"M. c #3CA96E",
"N. c #3FB66F",
"B. c #3EA770",
"V. c #638242",
"C. c #7DA85E",
"Z. c #6EA35C",
"A. c #41B871",
"S. c #40AA6F",
"D. c #43D476",
"F. c #47DA78",
"G. c #868B0C",
"H. c #9A890A",
"J. c #B28407",
"K. c #928238",
"L. c #9F903B",
"P. c #A29239",
"I. c #81BC24",
"U. c #DB8006",
"Y. c #ED8105",
"T. c #9B9F47",
"R. c #BF825A",
"E. c #8AA757",
"W. c #97B359",
"Q. c #93AB54",
"!. c #8E837B",
"~. c #C2814F",
"^. c #C58557",
"/. c #DA8D51",
"(. c #D18A56",
"). c #D9915E",
"_. c #D78849",
"`. c #E59353",
"'. c #EA9759",
"]. c #E28E4E",
"[. c #DA9260",
"{. c #E79964",
"}. c #F29D62",
"|. c #FAA66C",
" X c #F5A269",
".X c #C4AF43",
"XX c #F9DD49",
"oX c #E9CD44",
"OX c #FDE24A",
"+X c #B7538B",
"@X c #C65995",
"#X c #CA5997",
"$X c #D35D9E",
"%X c #DA5EA3",
"&X c #DF60A7",
"*X c #E662AC",
"=X c #EE66B2",
"-X c #F066B3",
";X c #838283",
":X c #C8C7C7",
">X c white",
",X c #F8EFE7",
"<X c None",
/* pixels */
"<X<X<X<X<X<X<X<X<X<X<X<X<X<X<X<X<X<X<X<X<X<X<X<X<X<X<X<X<X<X<X<X<X<X<X<X<X<X<X<X<X<X<X<X<X<X<X<X",
"<X<X<X<X<X<X<X<X<X<X<X<X<X<X<X<X<X<X<X<X<X<X<X<X<X<X<X<X<X<X<X<X<X<X<X<X<X<X<X<X<X<X<X<X<X<X<X<X",
"<X<X<X<X<X<X<X<X<X<X<X<X<X<X<X<X@ # # # + O . . O + # <X<X<X<X<X<X<X<X<X<X<X<X<X<X<X<X<X<X<X<X<X",
"<X<X<X<X<X<X<X<X<X<X<X<X<X<X<X; - - ; - ; s s s s s d <X<X<X<X<X<X<X<X<X<X<X<X<X<X<X<X<X<X<X<X<X",
"<X<X<X<X<X<X<X<X<X<X<X<X<X@ O i 9.q.q.q.0.i.g.g.g.j.d.# # # + + <X<X<X<X<X<X<X<X<X<X<X<X<X<X<X<X",
"<X<X<X<X<X<X<X<X<X<X<X<Xt 4 4 D t.t.u.e.e.g.I.k.k.I.f.d d d s s <X<X<X<X<X<X<X<X<X<X<X<X<X<X<X<X",
"<X<X<X<X<X<X<X# O O + + ( :.:.:.Y.Y.G.8.r.s.I.k.k.k.k.j.g.p.q.q.f # # <X<X<X<X<X<X<X<X<X<X<X<X<X",
"<X<X<X<X<X<X<XH H F # # ( ;.;.;.;.Y.G.e.e.p.i.a.k.k.k.k.k.i.y.y.f # # <X<X<X<X<X<X<X<X<X<X<X<X<X",
"<X<X<X<X@   0 $X=X+X&   ( ;.;.;.Y.Y.G.8.8.8.8.r.k.k.k.k.k.k.s.k.C X @ @ @ @ O @ # <X<X<X<X<X<X<X",
"<X<X<X<XJ J 3.*X=X#XY J  .' ' *.Y.Y.] H.H.H.H.G.i.i.i.i.i.i.i.i.f X - s i f C C C <X<X<X<X<X<X<X",
"<X# # < @X-X=X-X-X=X=X-X4.. o ' ;.;.;.;.Y.Y.;.=.u.8.8.8.8.e.8.e.u X - a w.r.h.k.f.= # = <X<X<X<X",
"<X# # & @X-X-X-X-X-X-X-X#X3.3..._ ` _ _ ' ;.;.-.J.J.%.i l z 8.0.x a a 9.w.r.h.k.g.Z Z C <X<X<X<X",
"<X# # < @X-X*X=X-X-X=X=X=X-X-XJ         * &.;.;.;.;.] + . u w.w.8.8.8.8.w.r.h.k.k.k.I.d.= X <X<X",
"<X<X<X<XY E 3.Y Y 4.=X=X-X-X-X+X4.4.4.4.4.( ( ( ( ( { <.2.A u u z 8.w.w.w.e.y.p.i.k.I.d.= @ <X<X",
"<X<X<X<X# # @ o X F *X=X=X=X=X=X-X-X-X-X*Xw O + +   V |.|.<.  X a 8.8.8.8.w.w.w.r.k.I.d.o @ <X<X",
"<X<X<X<X# # > N {  .H H G G H G G G #X-X&Xw   e 2.2.^. X|.<.o @ s d p 9.w.w.w.8.r.k.k.d.# # <X<X",
"<X<X<X<X2 # 7 +.>.[ o @ # 2 # @ O + +X=X%XF   q {.|. X X X<.+ + # # # z 0.0.8.w.r.g.j.d.# # <X<X",
"<X<X<X<X# @ 9 (.'.1.& . W :X:XW + & +X-X%Xw   9 {.|.'.,.,.{ # # # # # ; s f 9.w.9.f d n <X<X<X<X",
"<X<X<X<X3 : b {.|.1.#   ;X>X>X;X  & +X-X%XF o r {. X].@.@.M + # # # # # @ - z q.z # X = <X<X<X<X",
"<X<X= < 2.).).|.|.^.#   ;X>X>X!.  # +X-X%Xw . 8 $.,.>.>.>.M # # + # # <X<X<Xs ; ; <X<X<X<X<X<X<X",
"<X& # < R.[.{.'. X1.e 7 !.,X,X!.* e +X$X@Xr % t #.@.#.+.X.M 0 0 & @ # <X<X<X# O # <X<X<X<X<X<X<X",
"<X<X<X<Xe e c $.,.7.[.[.(.,.1.(.[.[.B 0 0 } X.' @.@.} 7 6 3.$X#XH @ O <X<X<X<X<X<X<X<X<X<X<X<X<X",
"<X<X<X<Xb e c } | $.).).7.@.>.7.{.'.N % t ' @.#.' | M # @ E #X#XG # + <X<X<X<X<X<X<X<X<X<X<X<X<X",
"<X# # 3 ^.{.^.8 % * > : M ] >.>.>.>.#.+.+.>.>.X.> : & # # & < < <X<X<X<X<X<X<X<X<X<X<X<X<X<X<X<X",
"<X# # $ 7.{.(.> @ 2 g 1 b } } } } } | } _ } | N k j g g g 1 # + <X<X<X<X<X<X<X<X<X<X<X<X<X<X<X<X",
"<X= # : | >.+.> @ 1 b.c.P # o o o $ o o = & o j b.c.c.c.c.L # + <X<X<X<X<X<X<X<X<X<X<X<X<X<X<X<X",
"<X<X# > M { N k h P B.B.z.K g K h h = # # # @ 1 c.n.m.S.B.U + # <X<X<X<X<X<X<X<X<X<X<X<X<X<X<X<X",
"<X<X<X<X& o 3 b.c.B.D.F.A.c.c.v.v.c.h @ # #   2 b.n.M.D.F.z.# # <X<X<X<X<X<X<X<X<X<X<X<X<X<X<X<X",
"<X<X<X<X# # 2 P P z.N.A.N.M.M.z.P I n 8 8 8 8 n P I z.D.F.z.@ @ <X<X<X<X<X<X<X<X<X<X<X<X<X<X<X<X",
"<X<X<X<X# # # @   h v.n.N.F.F.U @ o m [ [ [ [ N : o I F.F.z.  X <X<X<X<X<X<X<X<X<X<X<X<X<X<X<X<X",
"<X<X<X<X# + , O.K.S L I z.N.A.I # # m [ [ [ [ N : @ g U z.d.K.K.V <X<X<X<X<X<X<X<X<X<X<X<X<X<X<X",
"<X<X<X<X# + n oXOX.XX X h c.n.K @ & m [ [ [ [ N & # # + + K.XXXXS + # <X<X<X<X<X<X<X<X<X<X<X<X<X",
"<X<X<X<X# # 3 E.Q.Q.T.L.S K K T o.<.$.7.1.,.7.o.> # c P.T.T.Q.E.n # # <X<X<X<X<X<X<X<X<X<X<X<X<X",
"<X<X<X<X# @ 1 b.c.Z.XXOXL.  @ o.'.`.`.`.`.`.'.~.%   A XXOXW.c.c.L # # <X<X<X<X<X<X<X<X<X<X<X<X<X",
"<X<X<X<X<X<X<XK h I C.E.R = @ o.`.`.`.`.`.`.`.1.% @ k C.C.V.h K k <X<X<X<X<X<X<X<X<X<X<X<X<X<X<X",
"<X<X<X<X<X<X<X#   j z.c.I @ @ o.`./.].`.`.`.'.R.: @ h c.c.L + # <X<X<X<X<X<X<X<X<X<X<X<X<X<X<X<X",
"<X<X<X<X# # : # # = g k 1 # @ 9 b B 7.`.`.`.'.7.% # 2 g h 2 # # <X<X<X<X<X<X<X<X<X<X<X<X<X<X<X<X",
"<X<X<X<X# # # # # # # # # * * # + # <.]././.(.1.> # # # # # # # <X<X<X<X<X<X<X<X<X<X<X<X<X<X<X<X",
"<X<X# # # # # # # # # # 5 ! ~ 5 + # > r r 9 e 9 # # # # # # # # # # # <X<X<X<X<X<X<X<X<X<X<X<X<X",
"<X# # # # # # # # # # # 5 ~ ~ y 6 6 6 6 6 * * 6 * * * # # # # # # # # <X<X<X<X<X<X<X<X<X<X<X<X<X",
"<X# # # # = # # # # # # & * * ` =.=.=.=.=.Q ^ ^ ^ ^ / # # # # # # # # <X<X<X<X<X<X<X<X<X<X<X<X<X",
"<X<X# = # # # # # # # # # # O ) &.&.&.&.*.^ ~ ~ ~ ~ y # # # # # # # # <X<X<X<X<X<X<X<X<X<X<X<X<X",
"<X<X<X<X# # # # # # # # # # + & % % : : : * * & < * < # # # # # <X<X<X<X<X<X<X<X<X<X<X<X<X<X<X<X",
"<X<X<X<X# # # # = # # # # # # + # + + # # # @ # + + # # # # # # <X<X<X<X<X<X<X<X<X<X<X<X<X<X<X<X",
"<X<X<X<X<X<X<X<X<X<X@ # # # @ # # + # # # # # # + + # <X<X<X<X<X<X<X<X<X<X<X<X<X<X<X<X<X<X<X<X<X",
"<X<X<X<X<X<X<X<X<X<X@ # # O # + # # # + # + # # # # <X<X<X<X<X<X<X<X<X<X<X<X<X<X<X<X<X<X<X<X<X<X",
"<X<X<X<X<X<X<X<X<X<X<X<X<X<X<X<X<X<X<X<X<X<X<X<X<X<X<X<X<X<X<X<X<X<X<X<X<X<X<X<X<X<X<X<X<X<X<X<X",
"<X<X<X<X<X<X<X<X<X<X<X<X<X<X<X<X<X<X<X<X<X<X<X<X<X<X<X<X<X<X<X<X<X<X<X<X<X<X<X<X<X<X<X<X<X<X<X<X"
};
